<svg xmlns="http://www.w3.org/2000/svg" viewBox="0 0 100 100" x="0px" y="0px"><g data-name="Layer 2"><path d="M91,65a1,1,0,0,0-1-1H65.3328l-1.7537-1.3159a2.322,2.322,0,0,1-.7939-2.667l1.5263-4.2A4.3306,4.3306,0,0,0,63.8813,52h12.647A4.9733,4.9733,0,0,0,81,49.2363L81.6182,48H88a3,3,0,0,0,0-6H85.641A35.9314,35.9314,0,0,0,51,11.0233V10a1,1,0,0,0-2,0v1.0233A35.9314,35.9314,0,0,0,14.359,42H12a3,3,0,0,0,0,6h6.3818L19,49.2363A4.9733,4.9733,0,0,0,23.4717,52H33.4722a4.4589,4.4589,0,0,0-.2769.4971,4.2984,4.2984,0,0,0,.5957,4.6142l4.55,5.4605a71.3049,71.3049,0,0,1,9.6856,15.1743A14.4719,14.4719,0,0,0,61.0557,86H70v2a1.0005,1.0005,0,0,0,.8955.9946l19,2c.0352.0034.07.0054.1055.0054a1,1,0,0,0,.1035-1.9946L72,87.1V66H90A1,1,0,0,0,91,65ZM50,13A33.95,33.95,0,0,1,83.6309,42H16.3691A33.95,33.95,0,0,1,50,13ZM11,45a1.0009,1.0009,0,0,1,1-1H88a1,1,0,0,1,0,2H12A1.0009,1.0009,0,0,1,11,45Zm9.7891,3.3418L20.6182,48H79.3818l-.1709.3418A2.9828,2.9828,0,0,1,76.5283,50H23.4717A2.9828,2.9828,0,0,1,20.7891,48.3418ZM56.5932,52a4.3517,4.3517,0,0,0-.3666.6909l-2.81,6.8526a2.3368,2.3368,0,0,1-3.8135.7656L41.2949,52ZM49.835,76.8916a73.3342,73.3342,0,0,0-9.9571-15.6l-4.55-5.46A2.3355,2.3355,0,0,1,37.1221,52h.3759a2.3234,2.3234,0,0,1,1.6524.6841l9.0391,9.039a4.3355,4.3355,0,0,0,7.0771-1.4209l2.81-6.8525a2.3358,2.3358,0,0,1,4.3564,1.6841L60.9062,59.333a4.3093,4.3093,0,0,0,1.4727,4.9507L64,65.5V84H61.0557A12.4622,12.4622,0,0,1,49.835,76.8916ZM66,84V66h4V84Zm10-2a2,2,0,1,1-2,2A2.0023,2.0023,0,0,1,76,82Zm6,1a2,2,0,1,1-2,2A2.0023,2.0023,0,0,1,82,83Z"></path></g></svg>