<svg xmlns="http://www.w3.org/2000/svg" xmlns:xlink="http://www.w3.org/1999/xlink" version="1.1" x="0px" y="0px" viewBox="206 206 100 100" enable-background="new 206 206 100 100" xml:space="preserve"><path d="M298.874,282.235c-4.883-6.065-8.969-9.88-13.295-13.918c-1.498-1.398-3.046-2.844-4.652-4.408  c-1.522-1.482-2.833-2.811-4.124-4.178c-0.011-0.013-0.023-0.025-0.035-0.037c-1.359-1.438-2.646-2.86-3.937-4.347  c-0.951-1.095-1.855-2.165-2.763-3.271c-10.223-12.442-35.715-39.815-44.874-40.107c-0.08-0.002-0.16-0.004-0.24-0.004  c-8.589,0-14.568,14.786-14.821,15.422c-0.194,0.488-0.07,1.044,0.313,1.403c0.014,0.013,1.404,1.317,3.599,3.406  c0.033,0.035,0.071,0.061,0.107,0.091c0.028,0.023,0.054,0.05,0.083,0.071c0.041,0.028,0.085,0.049,0.128,0.072  c0.03,0.016,0.059,0.036,0.09,0.05c0.045,0.02,0.092,0.031,0.139,0.046c0.032,0.01,0.063,0.023,0.095,0.031  c0.047,0.01,0.095,0.013,0.143,0.018c0.033,0.003,0.066,0.011,0.099,0.012c0.047,0.001,0.094-0.005,0.141-0.009  c0.034-0.003,0.069-0.002,0.103-0.007c0.044-0.007,0.087-0.023,0.131-0.035c0.036-0.01,0.072-0.016,0.107-0.029  c0.039-0.014,0.075-0.037,0.112-0.055c0.038-0.018,0.076-0.033,0.113-0.055c0.021-0.013,0.04-0.032,0.061-0.047  c0.049-0.034,0.098-0.068,0.143-0.11c0.001-0.001,0.002-0.002,0.003-0.003c0.047-0.044,0.088-0.092,0.127-0.142  c0.008-0.01,0.016-0.02,0.024-0.031c0.037-0.05,0.07-0.103,0.098-0.158c0.003-0.005,0.007-0.01,0.009-0.015  c0.051-0.094,1.632-2.99,3.746-5.737c3.441-4.472,5.126-4.482,5.56-4.379c0.434,0.103,1.436,0.666,3.068,1.838  c-3.929,3.474-8.482,7.983-10.212,11.542c-0.308,0.634-0.044,1.398,0.591,1.706c0.18,0.087,0.37,0.129,0.557,0.129  c0.474,0,0.929-0.265,1.149-0.719c1.277-2.629,4.814-6.548,9.999-11.09c0.85,0.664,1.809,1.438,2.877,2.329  c-3.682,3.201-9.038,8.272-10.935,12.172c-0.308,0.634-0.044,1.398,0.59,1.707c0.18,0.087,0.37,0.129,0.557,0.129  c0.473,0,0.928-0.264,1.149-0.719c1.321-2.718,5.166-6.922,10.609-11.617c0.902,0.776,1.824,1.585,2.763,2.425  c-3.838,3.301-9.474,8.576-11.43,12.603c-0.308,0.634-0.044,1.398,0.591,1.706c0.18,0.087,0.37,0.129,0.557,0.129  c0.474,0,0.929-0.265,1.149-0.719c1.357-2.793,5.358-7.132,11.039-11.989c0.923,0.848,1.821,1.685,2.681,2.501  c-3.943,3.363-9.774,8.773-11.779,12.899c-0.308,0.634-0.044,1.398,0.591,1.706c0.18,0.087,0.37,0.129,0.557,0.129  c0.474,0,0.929-0.265,1.149-0.719c1.884-3.878,8.007-9.408,11.333-12.236c0.882,0.857,1.75,1.717,2.595,2.572  c-3.998,3.391-9.947,8.879-11.987,13.075c-0.308,0.634-0.044,1.398,0.59,1.707c0.18,0.087,0.37,0.129,0.557,0.129  c0.474,0,0.928-0.265,1.149-0.719c1.907-3.924,8.101-9.499,11.477-12.358c0.875,0.912,1.707,1.803,2.485,2.663  c-3.993,3.385-9.975,8.895-12.021,13.105c-0.308,0.634-0.044,1.398,0.59,1.707c0.18,0.087,0.37,0.129,0.557,0.129  c0.473,0,0.928-0.264,1.149-0.719c1.898-3.903,8.035-9.44,11.417-12.309c1.522,1.754,2.083,2.514,2.443,3.306  c-2.237,1.53-8.199,5.896-11.617,11.122c-0.001,0.002-0.002,0.004-0.004,0.005c-0.005,0.008-0.011,0.016-0.017,0.025  c-0.007,0.011-0.012,0.022-0.019,0.033c-0.013,0.021-0.026,0.043-0.038,0.064c-0.01,0.018-0.018,0.036-0.027,0.054  c-0.009,0.019-0.018,0.037-0.026,0.056c-0.009,0.022-0.017,0.045-0.025,0.067c-0.005,0.016-0.011,0.031-0.016,0.047  c-0.008,0.025-0.015,0.051-0.021,0.077c-0.003,0.014-0.007,0.027-0.009,0.041c-0.006,0.027-0.01,0.054-0.014,0.081  c-0.002,0.014-0.004,0.027-0.005,0.041c-0.003,0.026-0.005,0.053-0.006,0.079c-0.001,0.015-0.001,0.03-0.001,0.046  c0,0.024,0,0.049,0.002,0.073c0.001,0.018,0.002,0.035,0.003,0.053c0.002,0.022,0.005,0.043,0.008,0.065  c0.003,0.02,0.006,0.039,0.01,0.059c0.004,0.02,0.008,0.04,0.013,0.059c0.005,0.02,0.01,0.041,0.016,0.061  c0.006,0.02,0.012,0.039,0.019,0.058c0.007,0.019,0.013,0.038,0.021,0.058c0.008,0.021,0.018,0.042,0.027,0.062  c0.008,0.016,0.015,0.032,0.023,0.048c0.012,0.024,0.025,0.047,0.039,0.069c0.007,0.012,0.015,0.025,0.022,0.037  c0.016,0.026,0.034,0.05,0.053,0.075c0.005,0.007,0.01,0.014,0.015,0.021c1.743,2.224,2.379,3.381,2.605,3.96  c0.163,0.419,0.536,0.72,0.98,0.794c0.443,0.074,0.894-0.092,1.185-0.435c0.21-0.248,5.212-6.03,10.925-2.626  c0.319,0.19,0.665,0.419,1.031,0.683c1.211,0.868,2.764,2.187,4.49,3.813c1.32,1.248,2.717,2.649,4.151,4.164  c0.007,0.008,0.014,0.016,0.022,0.023c7.911,8.384,16.347,19.684,17.371,26.044c0.054,0.336,0.24,0.637,0.518,0.835  c0.218,0.156,0.478,0.238,0.743,0.238c0.071,0,0.143-0.006,0.215-0.018c0.444-0.076,10.898-1.925,13.222-8.064  C302.6,289.037,301.718,285.768,298.874,282.235z M278.077,264.689l-7.591,5.639c-0.81-0.841-1.606-1.644-2.383-2.402l7.6-5.646  C276.465,263.072,277.244,263.863,278.077,264.689z M263.628,263.895l8.055-5.983c0.744,0.843,1.492,1.672,2.257,2.498l-7.718,5.733  C265.287,265.284,264.421,264.535,263.628,263.895z M248.15,263.899c-0.398-0.641-0.907-1.37-1.527-2.191  c3.998-5.597,11.153-10.18,11.228-10.228c0.495-0.314,0.712-0.925,0.527-1.481c-0.665-1.998-1.325-2.865-4.113-6.029  c-1.276-1.447-2.712-2.989-4.267-4.583c-0.006-0.006-0.013-0.013-0.019-0.019c-0.001-0.001-0.002-0.002-0.002-0.002  c-1.412-1.45-2.898-2.925-4.414-4.383c-0.001-0.001-0.002-0.001-0.002-0.002c-0.002-0.002-0.003-0.003-0.005-0.005  c-1.428-1.375-2.971-2.818-4.586-4.288c-1.621-1.471-3.214-2.87-4.731-4.16c-1.544-1.313-3.292-2.753-4.941-4.003  c-0.003-0.002-0.006-0.005-0.009-0.007c-2.167-1.644-4.161-2.959-5.286-3.227c-2.345-0.558-5.044,1.208-8.249,5.402  c-1.293,1.691-2.38,3.405-3.082,4.575c-0.779-0.739-1.406-1.331-1.831-1.732c1.883-4.323,6.875-13.184,12.273-13.013  c1.477,0.047,6.335,1.506,19.53,14.009c9.239,8.755,18.173,18.741,23.453,25.167c0.633,0.771,1.265,1.524,1.91,2.28l-8.527,6.334  c-0.149-0.096-0.296-0.188-0.438-0.273C255.911,258.982,250.929,261.445,248.15,263.899z M299.109,291.045  c-1.308,3.461-6.92,5.455-10.07,6.205c-1.871-7.087-9.847-17.526-16.79-25.051l7.679-5.705c1.343,1.293,2.645,2.51,3.907,3.689  c4.258,3.975,8.279,7.729,13.049,13.653C299.12,286.612,299.868,289.038,299.109,291.045z"></path></svg>