<svg xmlns="http://www.w3.org/2000/svg" xmlns:xlink="http://www.w3.org/1999/xlink" version="1.1" x="0px" y="0px" viewBox="0 0 140 140" style="enable-background:new 0 0 140 140;" xml:space="preserve"><path d="M120.4726562,56.5605469c8.5908203-11.3710938,11.2470703-20.6689453,7.4794922-26.1796875  c-3.7675781-5.5117188-13.3935547-6.4091797-27.1074219-2.5332031c-3.7670898,1.0651855-7.7330322,2.4649658-11.8232422,4.1455078  C84.3256836,15.5361328,76.9414062,5,68.6953125,5c-0.0751953,0-0.1533203,0-0.2285156,0.0019531  C60.390625,5.1933594,53.5919189,15.4348145,49.5828857,31.3581543c-3.571167-1.4243164-7.0372314-2.6206055-10.352417-3.564209  c-13.7099609-3.9033203-23.3359375-3.0185547-27.1123047,2.4853516c-3.7773438,5.5039062-1.1376953,14.8056641,7.4326172,26.1914062  c3.324585,4.4169922,7.4017334,8.9614258,12.0598145,13.4956055c-4.6660156,4.5256348-8.7509766,9.0625-12.083252,13.4731445  c-8.5908203,11.3710938-11.2470703,20.6689453-7.4794922,26.1796875c2.2275391,3.2587891,6.5019531,4.9042969,12.4609375,4.9042969  c4.1181641,0,9.0419922-0.7871094,14.6464844-2.3710938c3.7670898-1.0651855,7.7329102-2.4648438,11.822998-4.1455078  C55.6740723,124.465332,63.0583496,135.0024414,71.3046875,135c0.0751953,0,0.1533203,0,0.2285156-0.0019531  c8.0761719-0.1914062,14.8748779-10.4328613,18.8839111-26.3562012c3.571167,1.4243164,7.0372314,2.6206055,10.352417,3.564209  c5.6289062,1.6025391,10.5693359,2.3974609,14.6992188,2.3974609c5.9287109,0,10.1875-1.6386719,12.4130859-4.8828125  c3.7773438-5.5039062,1.1376953-14.8056641-7.4326172-26.1914062c-3.324585-4.4169922-7.4017334-8.9614258-12.0598145-13.4956055  C113.0554199,65.5080566,117.1403809,60.9711914,120.4726562,56.5605469z M68.5136719,7.0019531  C68.5732422,7,68.6328125,7,68.6923828,7c7.1923828,0,13.9418945,10.2668457,18.3659668,25.8153076  c-5.5183105,2.3687744-11.2463379,5.2481689-17.0328369,8.5626221c-6.2857666-3.6149902-12.5025635-6.7141113-18.4570312-9.2023926  C55.3259277,17.1343994,61.4836426,7.1682129,68.5136719,7.0019531z M94.2451172,69.4277344  c-0.0766602-3.2491455-0.2397461-6.4301758-0.4768066-9.5354004c4.2017822,3.3269043,8.1391602,6.7263184,11.7414551,10.1386719  c-3.4803467,3.2851562-7.2762451,6.5563965-11.3164062,9.7629395  C94.3071289,76.4222412,94.3283691,72.9622803,94.2451172,69.4277344z M92.2451172,69.4746094  c0.0960693,4.0710449,0.0413818,8.0667725-0.1425781,11.9538574c-3.0603027,2.3618164-6.244751,4.6844482-9.5449219,6.9406738  c-4.1813965,2.8583984-8.3945312,5.5101318-12.581543,7.9422607c-4.1824951-2.4393311-8.3908691-5.0982666-12.5668945-7.9637451  c-3.1071777-2.1323242-6.1118164-4.3232422-9.0070801-6.550293c-0.3325195-3.6669922-0.5566406-7.4316406-0.6472168-11.2719727  c-0.0960693-4.0710449-0.0413818-8.0667725,0.1425781-11.9538574c3.0603027-2.3618164,6.244751-4.6844482,9.5449219-6.9406738  c4.1813965-2.8583984,8.3945312-5.5102539,12.581543-7.9422607c4.1826172,2.4393311,8.3908691,5.0982666,12.5668945,7.9637451  c3.1071777,2.1323242,6.1118164,4.3232422,9.0070801,6.550293C91.9304199,61.8696289,92.154541,65.6342773,92.2451172,69.4746094z   M91.9545898,84.0661621c-0.5026855,7.8967285-1.5581055,15.2739258-3.0524902,21.7897949  c-5.4681396-2.300415-11.1621094-5.12146-16.9278564-8.390625c3.9024658-2.2977295,7.8222656-4.7861328,11.7122803-7.4458008  C86.526123,88.0782471,89.286499,86.0888672,91.9545898,84.0661621z M67.9763184,97.4614258  c-5.2919922,2.9885254-10.5219727,5.5979004-15.5734863,7.777832c-1.6491699-6.230957-2.9260254-13.2412109-3.7310791-20.7233887  c2.463501,1.8588867,4.9989014,3.6907959,7.6065674,5.4802246C60.163208,92.6621094,64.0782471,95.1572266,67.9763184,97.4614258z   M45.7548828,70.5722656c0.0766602,3.2490234,0.2397461,6.4301758,0.4768066,9.5352783  c-4.2017822-3.3269043-8.1391602-6.7261963-11.7414551-10.1385498c3.4803467-3.2851562,7.2762451-6.5563965,11.3164062-9.7629395  C45.6928711,63.5777588,45.6716309,67.0377197,45.7548828,70.5722656z M48.0454102,55.9338379  c0.5026855-7.8967285,1.5581055-15.2738037,3.0524902-21.7897949c5.4682617,2.300415,11.1621094,5.12146,16.9279785,8.390625  c-3.9025879,2.2977295-7.8225098,4.7862549-11.7124023,7.4458008C53.473877,51.9217529,50.713501,53.9111328,48.0454102,55.9338379z   M83.7216797,50.0039062c-3.8848877-2.6660156-7.7999268-5.1611328-11.697998-7.465332  c5.2919922-2.9885254,10.5219727-5.5979004,15.5734863-7.777832c1.6491699,6.230957,2.9260254,13.2412109,3.7310791,20.7233887  C88.8647461,53.6252441,86.3293457,51.793335,83.7216797,50.0039062z M21.1484375,55.2675781  c-7.8964844-10.4902344-10.5869141-19.1865234-7.3818359-23.8574219c1.8261719-2.6611328,5.5595703-4.0058594,10.7714844-4.0058594  c3.9345703,0,8.7119141,0.7666016,14.1445312,2.3134766c3.3359375,0.9494629,6.8295898,2.1610107,10.4316406,3.6069336  c-1.6522217,7.1560059-2.7619629,15.357666-3.1990967,24.2518311c-4.618042,3.5999756-8.9377441,7.2915039-12.864624,11.0021973  C28.4492188,64.1032715,24.4251709,59.6208496,21.1484375,55.2675781z M38.6113281,110.2275391  c-12.6396484,3.5722656-21.7167969,2.9384766-24.9130859-1.7373047c-3.1972656-4.6767578-0.4912109-13.3671875,7.4248047-23.8447266  c3.2841797-4.3469238,7.315918-8.8217773,11.9250488-13.2888184c4.0808105,3.869873,8.5888672,7.7192383,13.4152832,11.467041  c0.7841797,8.4975586,2.1516113,16.3461914,3.9798584,23.2416992  C46.3459473,107.7575684,42.3764648,109.1628418,38.6113281,110.2275391z M71.4863281,132.9980469  C71.4267578,133,71.3671875,133,71.3076172,133c-7.1923828,0-13.9418945-10.2668457-18.3659668-25.8153076  c5.5183105-2.3687744,11.2463379-5.2481689,17.0328369-8.5626221c6.2857666,3.6149902,12.5025635,6.7141113,18.4570312,9.2023926  C84.6740723,122.8656006,78.5163574,132.8317871,71.4863281,132.9980469z M118.8515625,84.7324219  c7.8964844,10.4902344,10.5869141,19.1865234,7.3818359,23.8574219c-3.2050781,4.6699219-12.2871094,5.2880859-24.9160156,1.6923828  c-3.3359375-0.9494629-6.8295898-2.1611328-10.4316406-3.6071777c1.6522217-7.1558838,2.7619629-15.3574219,3.1990967-24.251709  c4.618042-3.5998535,8.9377441-7.2913818,12.864624-11.0020752  C111.5507812,75.8967285,115.5748291,80.3791504,118.8515625,84.7324219z M93.5366211,57.1762695  c-0.7843018-8.4975586-2.1518555-16.3461914-3.9801025-23.2416992c4.09729-1.6920166,8.0667725-3.0974121,11.8321533-4.1621094  c5.4121094-1.5302734,10.1708984-2.2880859,14.0947266-2.2880859c5.2392578,0,8.9902344,1.3515625,10.8183594,4.0253906  c3.1972656,4.6767578,0.4912109,13.3671875-7.4248047,23.8447266c-3.2841797,4.3469238-7.315918,8.8217773-11.9250488,13.2888184  C102.8710938,64.7734375,98.3630371,60.9240723,93.5366211,57.1762695z"></path><path d="M70,57.7099609c-6.7763672,0-12.2900391,5.5136719-12.2900391,12.2900391S63.2236328,82.2900391,70,82.2900391  S82.2900391,76.7763672,82.2900391,70S76.7763672,57.7099609,70,57.7099609z M70,80.2900391  c-5.6738281,0-10.2900391-4.6162109-10.2900391-10.2900391S64.3261719,59.7099609,70,59.7099609  S80.2900391,64.3261719,80.2900391,70S75.6738281,80.2900391,70,80.2900391z"></path></svg>