<svg xmlns="http://www.w3.org/2000/svg" xmlns:xlink="http://www.w3.org/1999/xlink" version="1.1" x="0px" y="0px" viewBox="0 0 512 512" style="enable-background:new 0 0 512 512;" xml:space="preserve"><g><g><g><g><path d="M480.998,423.4c-2.108,0-3.863-1.643-3.991-3.761l-0.025-0.313c-0.008-0.116-0.011-0.232-0.008-0.349l0.014-0.483      c0.006-0.163,0.013-0.325,0.013-0.489c0-2.209,1.791-4,4-4s4,1.791,4,4v1.395c0,2.163-1.72,3.935-3.882,3.998      C481.078,423.399,481.038,423.4,480.998,423.4z"></path></g><g><path d="M421,425c-2.209,0-4-1.791-4-4V111c0-19.476,14.913-34.732,33.95-34.732c18.775,0,34.05,16.086,34.05,35.858v306.868      c0,2.209-1.791,4-4,4s-4-1.791-4-4V112.125c0-15.361-11.686-27.858-26.05-27.858C436.156,84.268,425,95.76,425,111v310      C425,423.209,423.209,425,421,425z"></path></g><g><path d="M431,475H31c-2.209,0-4-1.791-4-4V111c0-2.209,1.791-4,4-4h390c2.209,0,4,1.791,4,4v288.168      c6.318-8.223,15.731-13.519,25.95-13.519c17.84,0,32.78,14.558,34.014,33.143c0.008,0.114,0.011,0.229,0.008,0.345      c-0.304,15.171-5.744,29.171-15.319,39.421C459.748,469.161,446.021,475,431,475z M35,467h396      c26.027,0,45.336-20.111,45.97-47.849c-1.033-14.314-12.432-25.502-26.02-25.502c-13.459,0-25.103,12.37-25.956,27.575      c-0.122,2.161-1.95,3.861-4.106,3.773C418.724,424.938,417,423.165,417,421V115H35V467z"></path></g><g><path d="M256,295H76c-2.209,0-4-1.791-4-4V161c0-2.209,1.791-4,4-4h180c2.209,0,4,1.791,4,4v130      C260,293.209,258.209,295,256,295z M80,287h172V165H80V287z"></path></g><g><path d="M146,225H76c-2.209,0-4-1.791-4-4v-60c0-2.209,1.791-4,4-4h70c2.209,0,4,1.791,4,4v60C150,223.209,148.209,225,146,225z       M80,217h62v-52H80V217z"></path></g><g><path d="M366,435H256c-2.209,0-4-1.791-4-4V241c0-2.209,1.791-4,4-4h110c2.209,0,4,1.791,4,4v190      C370,433.209,368.209,435,366,435z M260,427h102V245H260V427z"></path></g><g><path d="M206,375h-90c-2.209,0-4-1.791-4-4v-80c0-2.209,1.791-4,4-4h90c2.209,0,4,1.791,4,4v80C210,373.209,208.209,375,206,375      z M120,367h82v-72h-82V367z"></path></g><g><path d="M316,245h-60c-2.209,0-4-1.791-4-4v-50c0-2.209,1.791-4,4-4h60c2.209,0,4,1.791,4,4v50C320,243.209,318.209,245,316,245      z M260,237h52v-42h-52V237z"></path></g><g><path d="M216,475H76c-2.209,0-4-1.791-4-4v-50c0-2.209,1.791-4,4-4h140c2.209,0,4,1.791,4,4v50C220,473.209,218.209,475,216,475      z M80,467h132v-42H80V467z"></path></g><g><path d="M346,85H116c-0.621,0-1.233-0.145-1.789-0.422l-40-20C72.856,63.9,72,62.515,72,61s0.856-2.9,2.211-3.578l40-20      C114.767,37.145,115.379,37,116,37h230c13.233,0,24,10.767,24,24S359.233,85,346,85z M116.944,77H346c8.822,0,16-7.178,16-16      s-7.178-16-16-16H116.944l-32,16L116.944,77z"></path></g><g><path d="M326,85c-2.209,0-4-1.791-4-4V41c0-2.209,1.791-4,4-4s4,1.791,4,4v40C330,83.209,328.209,85,326,85z"></path></g><g><path d="M296,85c-2.209,0-4-1.791-4-4V41c0-2.209,1.791-4,4-4s4,1.791,4,4v40C300,83.209,298.209,85,296,85z"></path></g><g><path d="M316,435c-2.209,0-4-1.791-4-4V321c0-2.209,1.791-4,4-4h20c2.209,0,4,1.791,4,4s-1.791,4-4,4h-16v106      C320,433.209,318.209,435,316,435z"></path></g><g><path d="M256,225h-70c-2.209,0-4-1.791-4-4s1.791-4,4-4h70c2.209,0,4,1.791,4,4S258.209,225,256,225z"></path></g></g></g></g></svg>