<svg xmlns="http://www.w3.org/2000/svg" xmlns:xlink="http://www.w3.org/1999/xlink" version="1.1" x="0px" y="0px" viewBox="0 0 100 100" style="enable-background:new 0 0 100 100;" xml:space="preserve"><g><path d="M65.28,51.3c0.81,0.21,1.62-0.27,1.83-1.08c0.5-1.92,0.75-3.91,0.75-5.91c0-12.98-10.56-23.55-23.55-23.55   S20.76,31.33,20.76,44.31s10.56,23.55,23.55,23.55c2.07,0,4.12-0.27,6.1-0.8c0.8-0.21,1.28-1.04,1.06-1.84   c-0.21-0.8-1.03-1.28-1.84-1.06c-1.73,0.46-3.52,0.7-5.33,0.7c-11.33,0-20.55-9.22-20.55-20.55s9.22-20.55,20.55-20.55   s20.55,9.22,20.55,20.55c0,1.75-0.22,3.49-0.65,5.16C64,50.27,64.48,51.09,65.28,51.3z"></path><path d="M56.34,71.58c-1.49,0.66-3.05,1.2-4.62,1.6l-1.13,0.29v8.61H38.03v-8.61l-1.13-0.29c-2.71-0.69-5.32-1.78-7.76-3.22   l-1-0.59l-6.1,6.1l-8.89-8.89l6.1-6.1l-0.59-1c-1.44-2.44-2.53-5.05-3.22-7.76l-0.29-1.13H6.53V38.03h8.62l0.29-1.13   c0.69-2.71,1.78-5.32,3.22-7.76l0.59-1l-6.1-6.1l8.89-8.89l6.1,6.1l1-0.59c2.44-1.44,5.05-2.53,7.76-3.22l1.13-0.29V6.53h12.57   v8.61l1.13,0.29c2.71,0.69,5.32,1.78,7.76,3.22l1,0.59l6.1-6.1l8.89,8.89l-6.1,6.1l0.59,1c1.44,2.43,2.53,5.05,3.22,7.76l0.29,1.13   h8.61v12.57h-8.61l-0.29,1.13c-0.38,1.47-0.87,2.91-1.47,4.31c-0.33,0.76,0.03,1.64,0.79,1.97c0.76,0.33,1.64-0.03,1.97-0.79   c0.5-1.17,0.94-2.39,1.3-3.62h9.31V35.03h-9.31c-0.65-2.21-1.54-4.36-2.66-6.4l6.59-6.59L66.58,8.91l-6.59,6.59   c-2.04-1.11-4.19-2.01-6.4-2.66V3.53H35.03v9.31c-2.21,0.65-4.36,1.54-6.4,2.66l-6.59-6.59L8.91,22.04l6.59,6.59   c-1.12,2.04-2.01,4.19-2.66,6.4H3.53v18.57h9.31c0.65,2.21,1.54,4.36,2.66,6.4l-6.59,6.59l13.13,13.13l6.59-6.59   c2.04,1.11,4.19,2.01,6.4,2.66v9.31h18.57v-9.31c1.35-0.4,2.68-0.89,3.96-1.46c0.76-0.34,1.1-1.22,0.76-1.98   C57.98,71.59,57.1,71.25,56.34,71.58z"></path><path d="M94.38,83.98L60.59,50.2c2.36-6.28,0.86-13.5-3.89-18.25l-0.18-0.18c-4.13-4.13-10.05-5.86-15.82-4.62   c-0.54,0.12-0.97,0.52-1.12,1.04c-0.16,0.53-0.01,1.1,0.38,1.48l5.62,5.62c1.33,1.33,2.07,3.11,2.07,5.01   c0,1.9-0.73,3.68-2.07,5.01c-2.76,2.76-7.26,2.77-10.03,0l-5.62-5.62c-0.39-0.39-0.96-0.53-1.48-0.38   c-0.53,0.16-0.93,0.59-1.04,1.12c-1.24,5.77,0.48,11.69,4.62,15.82l0.18,0.18c4.75,4.75,11.97,6.26,18.25,3.9l33.78,33.78   c1.35,1.35,3.15,2.09,5.07,2.09s3.72-0.74,5.07-2.09s2.09-3.15,2.09-5.07S95.73,85.33,94.38,83.98z M92.25,92.01   c-0.78,0.78-1.83,1.22-2.95,1.22c-1.12,0-2.17-0.43-2.95-1.22L51.86,57.52c-0.29-0.29-0.67-0.44-1.06-0.44   c-0.21,0-0.42,0.04-0.61,0.13c-5.37,2.4-11.74,1.24-15.87-2.88l-0.18-0.18c-2.71-2.71-4.16-6.35-4.13-10.12l3.42,3.42   c3.93,3.94,10.34,3.93,14.27,0c1.9-1.9,2.95-4.43,2.95-7.13c0-2.7-1.05-5.24-2.95-7.13l-3.42-3.42c3.75-0.04,7.41,1.42,10.12,4.13   l0.18,0.18c4.13,4.13,5.28,10.5,2.88,15.87c-0.25,0.57-0.13,1.23,0.31,1.67L92.25,86.1c0.78,0.78,1.22,1.83,1.22,2.95   C93.47,90.17,93.04,91.22,92.25,92.01z"></path></g></svg>