<svg xmlns="http://www.w3.org/2000/svg" viewBox="0 0 100 100" style="enable-background:new 0 0 100 100" xml:space="preserve"><path d="M49.423 89.816a1 1 0 0 0 1.154 0l24.908-17.614a1 1 0 0 0 .423-.816v-60.38a1 1 0 0 0-1-1H25.092a1 1 0 0 0-1 1v60.38a1 1 0 0 0 .423.816l24.908 17.614zm.577-2.04-12.657-8.951V12.007h25.314v66.818L50 87.775zm23.908-16.908-9.25 6.542V12.007h9.25v58.861zM26.092 12.007h9.25V77.41l-9.25-6.542V12.007z"/><path d="m44.437 28.727-.47 5.03a1.001 1.001 0 0 0 1.393 1.012L50 32.768l4.64 2a.995.995 0 0 0 .984-.11 1 1 0 0 0 .408-.9l-.469-5.031L58.9 24.93a.998.998 0 0 0-.53-1.636l-4.932-1.108-2.578-4.347c-.361-.608-1.359-.608-1.72 0l-2.578 4.347-4.931 1.108a1.001 1.001 0 0 0-.531 1.636l3.337 3.796zm2.985-4.684a1 1 0 0 0 .64-.466L50 20.31l1.938 3.267a1 1 0 0 0 .64.466l3.707.833-2.509 2.853a1 1 0 0 0-.245.753l.353 3.783-3.488-1.504a1.001 1.001 0 0 0-.792 0l-3.488 1.504.353-3.783a1 1 0 0 0-.245-.753l-2.51-2.853 3.708-.833zM58.37 43.991l-4.932-1.108-2.578-4.347c-.361-.607-1.359-.607-1.72 0l-2.578 4.347-4.931 1.108a1.001 1.001 0 0 0-.531 1.636l3.337 3.795-.47 5.031a1.001 1.001 0 0 0 1.392 1.01l4.641-2 4.64 2a1 1 0 0 0 1.392-1.01l-.469-5.031 3.337-3.795a.998.998 0 0 0-.53-1.636zm-4.594 4.434a1 1 0 0 0-.245.753l.353 3.782-3.488-1.503a.993.993 0 0 0-.792 0l-3.488 1.503.353-3.782a1 1 0 0 0-.245-.753l-2.51-2.853 3.708-.833a1 1 0 0 0 .64-.466L50 41.006l1.938 3.267a1 1 0 0 0 .64.466l3.707.833-2.509 2.853zm4.594 16.262-4.932-1.109-2.578-4.346c-.361-.607-1.359-.607-1.72 0l-2.578 4.346-4.931 1.109a1.001 1.001 0 0 0-.531 1.635l3.337 3.796-.47 5.031a1.001 1.001 0 0 0 1.393 1.011l4.64-2 4.64 2a.995.995 0 0 0 .984-.11 1 1 0 0 0 .408-.9l-.469-5.032 3.337-3.796a.998.998 0 0 0-.53-1.635zm-4.594 4.434a1 1 0 0 0-.245.753l.353 3.782-3.488-1.504a1.001 1.001 0 0 0-.792 0l-3.488 1.504.353-3.782a1 1 0 0 0-.245-.753l-2.51-2.853 3.708-.833a1 1 0 0 0 .64-.466L50 61.702l1.938 3.267a1 1 0 0 0 .64.466l3.707.833-2.509 2.853z"/></svg>