<svg xmlns="http://www.w3.org/2000/svg" xmlns:xlink="http://www.w3.org/1999/xlink" version="1.1" x="0px" y="0px" viewBox="0 0 100 100" style="enable-background:new 0 0 100 100;" xml:space="preserve"><path d="M93.1,11.9H6.9c-0.7,0-1.3,0.6-1.3,1.3v63.5c0,0.7,0.6,1.3,1.3,1.3h86.2c0.7,0,1.3-0.6,1.3-1.3v-55h-2.5v53.7H8.2v-61h84.9  V11.9z"></path><rect x="37.7" y="85.6" width="24.7" height="2.5"></rect><path d="M71.1,26.4c0-0.7-0.6-1.3-1.3-1.3h-8.6v2.5h5.9C51.7,45.4,26,45.4,25.8,45.4l0,2.5c0,0,0.1,0,0.1,0  c2.1,0,26.8-0.4,42.8-18.1v5.5h2.5V26.4z"></path><rect x="28.6" y="55.8" width="2.5" height="6.4"></rect><rect x="41.8" y="51.1" width="2.5" height="11.1"></rect><rect x="55.1" y="46.6" width="2.5" height="15.6"></rect><rect x="67.7" y="41" width="2.5" height="21.2"></rect></svg>