<svg xmlns:dc="http://purl.org/dc/elements/1.1/" xmlns:cc="http://creativecommons.org/ns#" xmlns:rdf="http://www.w3.org/1999/02/22-rdf-syntax-ns#" xmlns:svg="http://www.w3.org/2000/svg" xmlns="http://www.w3.org/2000/svg" xmlns:sodipodi="http://sodipodi.sourceforge.net/DTD/sodipodi-0.dtd" xmlns:inkscape="http://www.inkscape.org/namespaces/inkscape" version="1.1" x="0px" y="0px" viewBox="0 0 100 100"><g transform="translate(0,-952.36218)"><path style="text-indent:0;text-transform:none;direction:ltr;block-progression:tb;baseline-shift:baseline;color:#000000;enable-background:accumulate;" d="M 50.343799,977.42322 95.3438,994.42325 c 0.7594,0.2821 0.7594,1.5929 0,1.875 l -6.3438,2.4063 0,11.93735 c 0.596899,0.3461 1,0.9792 1,1.7188 0,1.1046 -0.8955,2 -2,2 -1.104501,0 -2,-0.8954 -2,-2 0,-0.7396 0.403099,-1.3727 1,-1.7188 l 0,-11.18735 -8.968801,3.37495 L 79,1016.2669 c 0.111899,1.5669 -0.9165,2.9556 -2.4375,4.1876 -1.521001,1.2319 -3.663701,2.3907 -6.281301,3.4062 -5.234799,2.031 -12.4,3.5 -20.281199,3.5 -7.8812,0 -15.0465,-1.469 -20.2812,-3.5 -2.617501,-1.0155 -4.7603,-2.1743 -6.2813,-3.4062 -1.521001,-1.232 -2.549401,-2.6207 -2.4375,-4.1876 l 0.9688,-13.4374 -17.3125995,-6.53125 c -0.7594,-0.2821 -0.7594,-1.5929 0,-1.875 L 49.656201,977.42322 c 0.408,-0.1139 0.556399,-0.036 0.6876,0 z m -0.3438,2 L 7.8125005,995.36075 50,1011.2982 92.1875,995.36075 z m 26.0938,24.15628 -25.75,9.7187 c -0.2197,0.08 -0.4679,0.08 -0.6876,0 l -25.75,-9.7187 -0.9062,12.8437 c -0.037,0.5209 0.4102,1.4342 1.6875,2.4687 1.2773,1.0346 3.2691,2.1313 5.75,3.0938 4.9617,1.9251 11.9317,3.375 19.5625,3.375 7.6308,0 14.6008,-1.4499 19.5625,-3.375 2.4809,-0.9625 4.4727,-2.0592 5.75,-3.0938 1.2773,-1.0345 1.7247,-1.9478 1.6875,-2.4687 z" fill="#000000" fill-opacity="1" stroke="none" marker="none" visibility="visible" display="inline" overflow="visible"></path></g></svg>