<svg xmlns="http://www.w3.org/2000/svg" xmlns:xlink="http://www.w3.org/1999/xlink" version="1.1" x="0px" y="0px" viewBox="0 0 100 100" style="enable-background:new 0 0 100 100;" xml:space="preserve"><path d="M74.2753906,55.8525391c-0.390625-0.390625-1.0234375-0.390625-1.4140625,0s-0.390625,1.0234375,0,1.4140625  l4.3925781,4.3916016c0.1953125,0.1953125,0.4511719,0.2929688,0.7070312,0.2929688s0.5117188-0.0976562,0.7070312-0.2929688  l4.3925781-4.3916016c0.390625-0.390625,0.390625-1.0234375,0-1.4140625s-1.0234375-0.390625-1.4140625,0l-2.6855469,2.6848145  V48.1552734c0-0.5527344-0.4472656-1-1-1H51V40.5c0-0.5527344-0.4472656-1-1-1s-1,0.4472656-1,1v6.6552734H22.0390625  c-0.5527344,0-1,0.4472656-1,1v10.3820801l-2.6855469-2.6848145c-0.390625-0.390625-1.0234375-0.390625-1.4140625,0  s-0.390625,1.0234375,0,1.4140625l4.3925781,4.3916016c0.1953125,0.1953125,0.4511719,0.2929688,0.7070312,0.2929688  s0.5117188-0.0976562,0.7070312-0.2929688l4.3925781-4.3916016c0.390625-0.390625,0.390625-1.0234375,0-1.4140625  s-1.0234375-0.390625-1.4140625,0l-2.6855469,2.6848145v-9.3820801H49v9.3820801l-2.6855469-2.6848145  c-0.390625-0.390625-1.0234375-0.390625-1.4140625,0s-0.390625,1.0234375,0,1.4140625l4.3925781,4.3916016  C49.4882812,61.8535156,49.7441406,61.9511719,50,61.9511719s0.5117188-0.0976562,0.7070312-0.2929688l4.3925781-4.3916016  c0.390625-0.390625,0.390625-1.0234375,0-1.4140625s-1.0234375-0.390625-1.4140625,0L51,58.5373535v-9.3820801h25.9609375v9.3820801  L74.2753906,55.8525391z"></path><path d="M34.8759766,77.5615234c0-6.8583984-5.5791016-12.4375-12.4375-12.4375S10,70.703125,10,77.5615234  S15.5800781,90,22.4384766,90S34.8759766,84.4199219,34.8759766,77.5615234z M16.2331543,85.9356079  c0.1252441-2.6318359,1.848877-4.8862305,4.3928223-5.6592407c0.3857422-0.1171875,0.6630859-0.4541016,0.7041016-0.8554688  s-0.1630859-0.7871094-0.5166016-0.9794922c-1.1943359-0.6503906-1.9365234-1.8974609-1.9365234-3.2558594  c0-2.0419922,1.6621094-3.7041016,3.7041016-3.7041016s3.7041016,1.6621094,3.7041016,3.7041016  c0,1.3984375-0.7773438,2.6630859-2.0283203,3.2998047c-0.3603516,0.1835938-0.5742188,0.5644531-0.5439453,0.9667969  s0.2998047,0.7470703,0.6826172,0.8740234c2.4577637,0.8136597,4.1235352,3.0466309,4.2475586,5.609436  C26.90625,87.2262573,24.7635498,88,22.4384766,88C20.1130371,88,17.9702148,87.2262573,16.2331543,85.9356079z M12,77.5615234  c0-5.7548828,4.6826172-10.4375,10.4384766-10.4375c5.7548828,0,10.4375,4.6826172,10.4375,10.4375  c0,2.5548096-0.9257812,4.8952026-2.4550781,6.7114868c-0.5227051-2.1317139-1.8710938-3.9728394-3.7617188-5.0991821  c1.0292969-1.046875,1.6259766-2.4658203,1.6259766-3.9882812c0-3.1455078-2.5585938-5.7041016-5.7041016-5.7041016  s-5.7041016,2.5585938-5.7041016,5.7041016c0,1.4609375,0.5576172,2.8378906,1.5195312,3.8769531  c-1.9909668,1.1132202-3.4055176,2.9992676-3.9416504,5.210144C12.9256592,82.4564209,12,80.1161499,12,77.5615234z"></path><path d="M50,65.1240234c-6.8583984,0-12.4384766,5.5791016-12.4384766,12.4375S43.1416016,90,50,90  s12.4384766-5.5800781,12.4384766-12.4384766S56.8583984,65.1240234,50,65.1240234z M43.7946777,85.9356079  c0.1252441-2.6318359,1.848999-4.8862305,4.3937988-5.6592407c0.3857422-0.1171875,0.6630859-0.4550781,0.7041016-0.8554688  c0.0410156-0.4013672-0.1630859-0.7871094-0.5175781-0.9804688c-1.1933594-0.6494141-1.9355469-1.8964844-1.9355469-3.2548828  c0-2.0419922,1.6621094-3.7041016,3.7041016-3.7041016s3.7041016,1.6621094,3.7041016,3.7041016  c0,1.3984375-0.7773438,2.6630859-2.0292969,3.3007812c-0.359375,0.1826172-0.5732422,0.5634766-0.5429688,0.9658203  s0.2998047,0.7470703,0.6826172,0.8740234c2.4577637,0.8145752,4.1234131,3.0474243,4.2475586,5.609314  C54.4685059,87.2261963,52.3255615,88,50,88C47.6745605,88,45.5317383,87.2262573,43.7946777,85.9356079z M57.9832764,84.2730713  c-0.5228271-2.1314087-1.8710938-3.9729614-3.7615967-5.0992432c1.0292969-1.0478516,1.6259766-2.4658203,1.6259766-3.9882812  c0-3.1455078-2.5585938-5.7041016-5.7041016-5.7041016s-5.7041016,2.5585938-5.7041016,5.7041016  c0,1.4609375,0.5566406,2.8388672,1.5195312,3.8769531c-1.9916992,1.1132202-3.4064941,2.9992676-3.942627,5.210144  c-1.5291748-1.8162231-2.454834-4.1564941-2.454834-6.7111206c0-5.7548828,4.6826172-10.4375,10.4384766-10.4375  s10.4384766,4.6826172,10.4384766,10.4375C60.4384766,80.116333,59.5126953,82.4567871,57.9832764,84.2730713z"></path><path d="M63.5830078,23.5830078C63.5830078,16.09375,57.4892578,10,50,10s-13.5830078,6.09375-13.5830078,13.5830078  c0,7.4902344,6.09375,13.5839844,13.5830078,13.5839844S63.5830078,31.0732422,63.5830078,23.5830078z M43.0695801,32.8426514  c0.1188965-2.9606934,2.0507812-5.5014648,4.907959-6.3690186c0.3847656-0.1171875,0.6630859-0.4541016,0.7041016-0.8554688  s-0.1630859-0.7871094-0.5175781-0.9794922C46.8183594,23.9052734,45.9824219,22.5,45.9824219,20.96875  c0-2.3017578,1.8730469-4.1748047,4.1748047-4.1748047c2.3027344,0,4.1757812,1.8730469,4.1757812,4.1748047  c0,1.5761719-0.8759766,3.0019531-2.2871094,3.7207031c-0.359375,0.1826172-0.5732422,0.5634766-0.5429688,0.9658203  s0.2998047,0.7470703,0.6826172,0.8740234c2.7602539,0.9141235,4.6271973,3.430542,4.7451172,6.3132324  C54.9953613,34.295105,52.6004639,35.1669922,50,35.1669922C47.3996582,35.1669922,45.0048828,34.295166,43.0695801,32.8426514z   M38.4169922,23.5830078C38.4169922,17.1962891,43.6132812,12,50,12s11.5830078,5.1962891,11.5830078,11.5830078  c0,2.907959-1.0849609,5.5617065-2.8607178,7.5979614c-0.5428467-2.440918-2.0703125-4.5523071-4.2408447-5.8040161  c1.1699219-1.1416016,1.8515625-2.7158203,1.8515625-4.4082031c0-3.4052734-2.7705078-6.1748047-6.1757812-6.1748047  s-6.1748047,2.7695312-6.1748047,6.1748047c0,1.6259766,0.6376953,3.15625,1.7333984,4.2910156  c-2.2818604,1.2319946-3.8834229,3.3909912-4.439209,5.9199829C39.5014648,29.1436157,38.4169922,26.4903564,38.4169922,23.5830078z  "></path><path d="M77.5615234,65.1240234c-6.8583984,0-12.4375,5.5791016-12.4375,12.4375S70.703125,90,77.5615234,90  S90,84.4199219,90,77.5615234S84.4199219,65.1240234,77.5615234,65.1240234z M71.3570557,85.935791  c0.1251221-2.6327515,1.848999-4.8863525,4.3929443-5.6594238c0.3857422-0.1171875,0.6630859-0.4541016,0.7041016-0.8554688  c0.0410156-0.4003906-0.1630859-0.7871094-0.5166016-0.9794922c-1.1943359-0.6503906-1.9365234-1.8974609-1.9365234-3.2558594  c0-2.0419922,1.6621094-3.7041016,3.7041016-3.7041016s3.7041016,1.6621094,3.7041016,3.7041016  c0,1.3984375-0.7773438,2.6630859-2.0283203,3.2998047c-0.3603516,0.1835938-0.5742188,0.5644531-0.5439453,0.9667969  s0.2998047,0.7470703,0.6826172,0.8740234c2.4577637,0.8135986,4.1235352,3.0465088,4.2475586,5.609314  C82.0300293,87.2261963,79.887085,88,77.5615234,88C75.2365723,88,73.0939941,87.2263794,71.3570557,85.935791z   M85.5449219,84.2729492c-0.5227051-2.1317139-1.8710938-3.9727783-3.7617188-5.0991211  c1.0292969-1.046875,1.6259766-2.4658203,1.6259766-3.9882812c0-3.1455078-2.5585938-5.7041016-5.7041016-5.7041016  s-5.7041016,2.5585938-5.7041016,5.7041016c0,1.4609375,0.5576172,2.8378906,1.5195312,3.8769531  c-1.9912109,1.1124878-3.4057617,2.9986572-3.9416504,5.210144c-1.5292969-1.8162231-2.454834-4.1564941-2.454834-6.7111206  c0-5.7548828,4.6826172-10.4375,10.4375-10.4375C83.3173828,67.1240234,88,71.8066406,88,77.5615234  C88,80.116272,87.0742188,82.456665,85.5449219,84.2729492z"></path><path d="M71.0429688,10.1337891l-5.9052734,3.4091797c-0.4785156,0.2763672-0.6425781,0.8876953-0.3662109,1.3662109  c0.1855469,0.3212891,0.5214844,0.5,0.8671875,0.5c0.1699219,0,0.3417969-0.0429688,0.4990234-0.1337891l5.9052734-3.4091797  c0.4785156-0.2763672,0.6425781-0.8876953,0.3662109-1.3662109C72.1318359,10.0205078,71.5195312,9.8583984,71.0429688,10.1337891z"></path><path d="M75.9326172,23.453125c0-0.5527344-0.4472656-1-1-1h-6.8193359c-0.5527344,0-1,0.4472656-1,1s0.4472656,1,1,1h6.8193359  C75.4853516,24.453125,75.9326172,24.0058594,75.9326172,23.453125z"></path><path d="M66.2353516,31.65625c-0.4785156-0.2763672-1.0898438-0.1132812-1.3662109,0.3662109  c-0.2763672,0.4785156-0.1123047,1.0898438,0.3662109,1.3662109l5.9052734,3.4101562  c0.1572266,0.0908203,0.3291016,0.1337891,0.4990234,0.1337891c0.3457031,0,0.6816406-0.1787109,0.8671875-0.5  c0.2763672-0.4785156,0.1123047-1.0898438-0.3662109-1.3662109L66.2353516,31.65625z"></path><path d="M33.8623047,31.8242188l-5.9052734,3.4101562c-0.4785156,0.2763672-0.6425781,0.8876953-0.3662109,1.3662109  c0.1855469,0.3212891,0.5214844,0.5,0.8671875,0.5c0.1699219,0,0.3417969-0.0429688,0.4990234-0.1337891l5.9052734-3.4101562  c0.4785156-0.2763672,0.6425781-0.8876953,0.3662109-1.3662109C34.9511719,31.7099609,34.3388672,31.5488281,33.8623047,31.8242188z  "></path><path d="M24.0673828,23.6474609c0,0.5527344,0.4472656,1,1,1h6.8193359c0.5527344,0,1-0.4472656,1-1s-0.4472656-1-1-1h-6.8193359  C24.5146484,22.6474609,24.0673828,23.0947266,24.0673828,23.6474609z"></path><path d="M34.7646484,13.7109375l-5.9052734-3.4091797c-0.4775391-0.2763672-1.0898438-0.1123047-1.3662109,0.3662109  s-0.1123047,1.0898438,0.3662109,1.3662109l5.9052734,3.4091797c0.1572266,0.0908203,0.3291016,0.1337891,0.4990234,0.1337891  c0.3457031,0,0.6816406-0.1796875,0.8671875-0.5C35.4072266,14.5986328,35.2431641,13.9873047,34.7646484,13.7109375z"></path></svg>