<svg xmlns="http://www.w3.org/2000/svg" xmlns:xlink="http://www.w3.org/1999/xlink" version="1.1" x="0px" y="0px" viewBox="0 0 100 100" style="enable-background:new 0 0 100 100;" xml:space="preserve"><path d="M22.22,45.58c-0.01,1.89-0.18,4.01-0.18,4.02c-0.16,1.8-0.42,3.28-0.65,4.59c-0.17,0.96-0.32,1.84-0.42,2.72  C18.65,77.37,48.24,89.43,49.5,89.93c0.11,0.04,0.55,0.07,0.67,0.07s0.23-0.02,0.34-0.07c1.26-0.5,30.85-12.56,28.53-33.03  c-0.1-0.88-0.26-1.76-0.42-2.72c-0.23-1.31-0.49-2.79-0.65-4.58c-0.01-0.12-0.17-2.18-0.18-4.02c-0.02-5.85,2.11-12.92,3.03-15.69  c0.09-0.27,0.05-0.57-0.11-0.81c-0.16-0.24-0.43-0.38-0.71-0.39c-5.79-0.25-10.33-5.01-10.33-10.83c0-0.5-0.4-0.9-0.9-0.91  c-7.52-0.14-13.62-2.39-18.11-6.69c-0.35-0.34-0.91-0.34-1.26,0c-4.49,4.3-10.59,6.55-18.11,6.69c-0.5,0.01-0.9,0.42-0.9,0.91  c0,5.82-4.54,10.57-10.33,10.83c-0.29,0.01-0.55,0.16-0.71,0.39c-0.16,0.24-0.2,0.53-0.11,0.81C20.12,32.66,22.25,39.72,22.22,45.58  z M32.16,18.75c7.26-0.29,13.26-2.51,17.84-6.59c4.58,4.09,10.58,6.3,17.84,6.59c0.41,5.99,4.96,10.85,10.87,11.66  c-1.05,3.35-2.79,9.73-2.77,15.18c0.01,1.96,0.18,4.08,0.19,4.17c0,0,0,0.01,0,0.01c0.17,1.87,0.44,3.39,0.67,4.74  c0.16,0.92,0.31,1.77,0.41,2.61c2.1,18.52-25.41,30.3-27.28,31.02c-2.82-1.19-29.21-12.87-27.15-31.02  c0.09-0.84,0.24-1.69,0.41-2.61c0.24-1.34,0.5-2.86,0.67-4.75c0.01-0.09,0.18-2.21,0.19-4.17c0.02-5.46-1.71-11.83-2.76-15.18  C27.2,29.6,31.75,24.74,32.16,18.75z"></path><path d="M27.71,45.6c-0.01,2.04-0.18,4.26-0.2,4.5c-0.18,2.01-0.47,3.67-0.74,5.16c-0.14,0.8-0.27,1.53-0.35,2.27  c-1.53,13.55,17.36,23.66,23.19,26.44c0.12,0.06,0.26,0.09,0.39,0.09c0.13,0,0.27-0.03,0.39-0.09c5.83-2.78,24.72-12.89,23.19-26.44  c-0.09-0.73-0.21-1.47-0.38-2.42c-0.23-1.34-0.53-3-0.71-5.08c-0.04-0.57-0.19-2.56-0.2-4.43c-0.01-3.4,0.56-7.41,1.69-11.92  c0.11-0.42-0.1-0.86-0.5-1.05c-4.11-1.94-7.24-5.54-8.59-9.88c-0.11-0.34-0.4-0.59-0.76-0.64c-5.17-0.66-9.76-2.32-13.62-4.93  c-0.31-0.21-0.71-0.21-1.03,0c-3.87,2.61-8.45,4.27-13.62,4.93c-0.36,0.05-0.65,0.29-0.76,0.64c-1.35,4.34-4.48,7.95-8.59,9.88  c-0.4,0.19-0.6,0.63-0.5,1.05C27.16,38.2,27.72,42.21,27.71,45.6z M36.67,23.85c5-0.71,9.48-2.33,13.33-4.81  c3.85,2.49,8.33,4.1,13.33,4.81c1.51,4.34,4.64,7.97,8.7,10.1c-1.06,4.37-1.59,8.29-1.57,11.66c0.01,1.93,0.16,3.98,0.21,4.6  c0.2,2.14,0.49,3.85,0.76,5.36c0.13,0.76,0.26,1.46,0.34,2.16C73.13,69.8,55.96,79.24,50,82.13c-5.96-2.89-23.13-12.32-21.76-24.39  c0.08-0.7,0.21-1.4,0.36-2.31c0.24-1.37,0.54-3.07,0.73-5.17c0.03-0.41,0.2-2.59,0.21-4.65c0.01-3.36-0.51-7.28-1.57-11.66  C32.04,31.82,35.16,28.19,36.67,23.85z"></path></svg>