<svg xmlns="http://www.w3.org/2000/svg" xmlns:xlink="http://www.w3.org/1999/xlink" version="1.1" x="0px" y="0px" viewBox="0 0 100 100" enable-background="new 0 0 100 100" xml:space="preserve"><g><path d="M86.58,26.792C73.782,6.622,46.959,0.624,26.791,13.421C17.021,19.62,10.249,29.252,7.724,40.545   C5.198,51.838,7.221,63.438,13.42,73.208c3.759,5.922,8.715,10.702,14.731,14.209c0.477,0.277,1.089,0.116,1.367-0.36   c0.278-0.478,0.117-1.09-0.36-1.368c-5.736-3.343-10.463-7.903-14.049-13.553c-1.395-2.199-2.561-4.498-3.507-6.864h34.106v-2   h-9.857c1-0.813,1.652-2.038,1.652-3.425c0-2.445-1.989-4.435-4.435-4.435s-4.435,1.989-4.435,4.435   c0,1.387,0.653,2.611,1.652,3.425H10.859c-0.273-0.802-0.524-1.609-0.747-2.425h18.294v-1c0-2.553,2.077-4.629,4.629-4.629   s4.629,2.076,4.629,4.629v1h9.044V38.078c0-2.002-0.636-3.639-1.89-4.864c-2.339-2.286-5.986-2.228-6.106-2.226H13.303   c3.318-6.431,8.287-11.899,14.56-15.879C47.102,2.904,72.686,8.626,84.891,27.863c8.771,13.825,8.285,30.925,0.178,43.983   l-3.776-3.729h1.472c1.632,0,2.96-1.436,2.96-3.199V40.713c0-1.755-1.314-3.182-2.935-3.197v-1.645h-2v1.642h-5.003   c-0.278-2.555-2.448-4.551-5.076-4.551s-4.799,1.996-5.077,4.551h-3.972v-1.642h-2v1.642h-1.005c-1.633,0-2.961,1.436-2.961,3.2   v24.205c0,1.764,1.328,3.199,2.961,3.199h19.788l2.055,2.029H61.43v2h21.095l1.425,1.407c-0.485,0.701-1.002,1.384-1.532,2.057H67   v2h13.73c-2.465,2.745-5.329,5.208-8.594,7.279c-10.022,6.359-22.31,8.101-33.715,4.775c-0.527-0.153-1.084,0.149-1.24,0.68   c-0.155,0.53,0.15,1.086,0.68,1.24c3.982,1.161,8.066,1.733,12.133,1.733c8.141-0.001,16.206-2.293,23.214-6.739   C93.378,73.782,99.376,46.962,86.58,26.792z M33.068,57.412c1.342,0,2.435,1.092,2.435,2.435s-1.092,2.435-2.435,2.435   s-2.435-1.092-2.435-2.435S31.726,57.412,33.068,57.412z M44.708,58.847h-5.119c-0.483-3.183-3.238-5.629-6.554-5.629   s-6.07,2.446-6.554,5.629H9.62c-0.98-4.46-1.21-9.072-0.659-13.679h35.747V58.847z M9.25,43.168   c0.081-0.476,0.177-0.95,0.274-1.425h35.184v1.425H9.25z M38.732,32.988c0.013-0.006,2.966-0.036,4.696,1.664   c0.861,0.846,1.28,1.967,1.28,3.426v1.665H9.984c0.314-1.23,0.682-2.437,1.101-3.62h5.039v2.478h2v-4.478h-6.271   c0.157-0.38,0.314-0.76,0.482-1.135H38.732z M58.656,39.513h9.084l-0.119-1.107c-0.012-0.11-0.019-0.223-0.019-0.336   c0-1.713,1.394-3.107,3.107-3.107c1.713,0,3.106,1.394,3.106,3.107c0,0.116-0.006,0.23-0.018,0.343l-0.11,1.1h9.075   c0.529,0,0.96,0.539,0.96,1.2v15.429H57.695V40.713C57.695,40.052,58.126,39.513,58.656,39.513z M57.695,64.918v-6.775h26.028   v6.775c0,0.661-0.431,1.199-0.96,1.199H58.656C58.126,66.117,57.695,65.579,57.695,64.918z"></path><path d="M34.977,88.496c-0.763-0.298-1.528-0.622-2.274-0.966c-0.501-0.231-1.096-0.012-1.327,0.49   c-0.231,0.501-0.012,1.096,0.49,1.326c0.782,0.36,1.584,0.701,2.385,1.013c0.119,0.047,0.242,0.068,0.362,0.068   c0.4,0,0.778-0.241,0.932-0.637C35.747,89.276,35.492,88.696,34.977,88.496z"></path><path d="M62.133,55.209h16.869c1.765,0,3.201-1.437,3.201-3.201v-6.16c0-1.765-1.437-3.2-3.201-3.2H62.133   c-1.765,0-3.201,1.436-3.201,3.2v6.16C58.932,53.772,60.368,55.209,62.133,55.209z M60.932,45.848c0-0.662,0.539-1.2,1.201-1.2   h16.869c0.662,0,1.201,0.539,1.201,1.2v6.16c0,0.662-0.539,1.201-1.201,1.201H62.133c-0.662,0-1.201-0.539-1.201-1.201V45.848z"></path><rect x="68.135" y="45.502" transform="matrix(0.8222 0.5693 -0.5693 0.8222 39.7721 -30.7719)" width="2" height="5.53"></rect><rect x="69.998" y="48.856" transform="matrix(-0.5696 0.8219 -0.8219 -0.5696 155.186 18.4458)" width="5.529" height="2"></rect><path d="M62.279,58.93c-1.846,0-3.348,1.502-3.348,3.348s1.502,3.348,3.348,3.348s3.347-1.502,3.347-3.348   S64.125,58.93,62.279,58.93z M62.279,63.625c-0.743,0-1.348-0.604-1.348-1.348s0.604-1.348,1.348-1.348   c0.742,0,1.347,0.604,1.347,1.348S63.021,63.625,62.279,63.625z"></path><path d="M78.855,58.93c-1.846,0-3.347,1.502-3.347,3.348s1.501,3.348,3.347,3.348s3.348-1.502,3.348-3.348   S80.701,58.93,78.855,58.93z M78.855,63.625c-0.742,0-1.347-0.604-1.347-1.348s0.604-1.348,1.347-1.348   c0.743,0,1.348,0.604,1.348,1.348S79.599,63.625,78.855,63.625z"></path><polygon points="26.011,38.601 28.011,38.601 28.011,34.123 19.665,34.123 19.665,36.123 26.011,36.123  "></polygon><polygon points="35.741,38.601 37.741,38.601 37.741,34.123 29.396,34.123 29.396,36.123 35.741,36.123  "></polygon><polygon points="16.124,52.202 18.124,52.202 18.124,46.124 9.778,46.124 9.778,48.124 16.124,48.124  "></polygon><polygon points="26.011,52.202 28.011,52.202 28.011,46.124 19.665,46.124 19.665,48.124 26.011,48.124  "></polygon><polygon points="35.741,52.202 37.741,52.202 37.741,46.124 29.396,46.124 29.396,48.124 35.741,48.124  "></polygon><path d="M41.978,38.601h2c0-3.182-3.342-4.318-5.109-4.474l-0.179,1.992C38.824,36.131,41.978,36.452,41.978,38.601z"></path><path d="M40.901,48.956c0.714,0.687,1.077,1.779,1.077,3.247h2c0-2.033-0.569-3.611-1.691-4.689   c-1.513-1.453-3.461-1.391-3.546-1.388l0.08,1.998C38.837,48.123,40.009,48.1,40.901,48.956z"></path><rect x="9.778" y="56.308" width="15.932" height="2"></rect><rect x="40.879" y="56.308" width="2.099" height="2"></rect><path d="M54.83,32.104l6.941-5.362H75.81l-0.507-1.351c-1.592-4.245-6.202-5.314-6.397-5.358l-7.15-0.006l-8.228-5.381h-8.193   l5.46,5.371l-7.929-0.007l-2.886-5.363H33.21l4.177,12.096h13.847l-5.032,5.362H54.83z M50.22,16.646h2.712l5.164,3.377   l-4.447-0.004L50.22,16.646z M36.017,16.646h2.767l2.886,5.363h26.892c0.488,0.134,2.747,0.838,4.135,2.733H38.813L36.017,16.646z    M58.5,26.743l-4.352,3.362h-3.326l3.156-3.362H58.5z"></path><path d="M36.776,82.229c1.826,0,3.311-1.484,3.311-3.31s-1.485-3.31-3.311-3.31c-1.825,0-3.31,1.484-3.31,3.31   S34.951,82.229,36.776,82.229z M36.776,77.61c0.723,0,1.311,0.588,1.311,1.31s-0.588,1.31-1.311,1.31   c-0.722,0-1.31-0.588-1.31-1.31S36.054,77.61,36.776,77.61z"></path><path d="M56.527,82.229c1.825,0,3.31-1.484,3.31-3.31s-1.484-3.31-3.31-3.31s-3.311,1.484-3.311,3.31S54.702,82.229,56.527,82.229z    M56.527,77.61c0.722,0,1.31,0.588,1.31,1.31s-0.588,1.31-1.31,1.31c-0.723,0-1.311-0.588-1.311-1.31S55.805,77.61,56.527,77.61z"></path><path d="M53.162,76.833H40.527v4.5h12.635V76.833z M51.162,79.333h-8.635v-0.5h8.635V79.333z"></path><path d="M39.717,85.555v-1.131h13.654v1.131c0,1.621,1.319,2.94,2.941,2.94c1.621,0,2.94-1.319,2.94-2.94v-1.159   c1.736-0.145,3.109-1.57,3.109-3.322v-4.307c0-1.848-1.521-3.351-3.393-3.351h-0.218l-3.994-6.539H38.319l-4.18,6.552   c-1.81,0.07-3.263,1.534-3.263,3.338v4.307c0,1.701,1.294,3.094,2.959,3.308v1.174c0,1.621,1.319,2.94,2.94,2.94   C38.398,88.495,39.717,87.176,39.717,85.555z M56.313,86.495c-0.52,0-0.941-0.422-0.941-0.94v-1.131h1.882v1.131   C57.253,86.073,56.831,86.495,56.313,86.495z M39.416,68.877h14.221l2.772,4.539H46.152c-0.357-1.783-1.933-3.132-3.82-3.132   c-1.887,0-3.463,1.349-3.82,3.132H36.52L39.416,68.877z M44.065,73.416h-3.466c0.295-0.665,0.959-1.132,1.733-1.132   S43.77,72.751,44.065,73.416z M32.876,81.073v-4.307c0-0.745,0.625-1.351,1.394-1.351H58.97c0.768,0,1.393,0.605,1.393,1.351v4.307   c0,0.745-0.625,1.351-1.393,1.351H34.271C33.502,82.424,32.876,81.818,32.876,81.073z M36.776,86.495   c-0.518,0-0.94-0.422-0.94-0.94v-1.131h1.881v1.131C37.717,86.073,37.295,86.495,36.776,86.495z"></path></g></svg>