<svg xmlns="http://www.w3.org/2000/svg" xmlns:xlink="http://www.w3.org/1999/xlink" version="1.1" x="0px" y="0px" viewBox="0 0 512 512" enable-background="new 0 0 512 512" xml:space="preserve"><path d="M497.6455078,275.6801758h-28.5822754c2.7077637-5.7523193,4.9848633-11.3930664,6.8039551-16.9125977  c5.5908203-14.2583008,8.5839844-29.1982422,8.8984375-44.418457c0.1201172-1.0048828,0.1806641-2.0371094,0.1806641-3.078125  c0-71.3076172-58.0166016-129.3203125-129.3291016-129.3203125c-40.0527344,0-78.0839844,19.0615234-102.4726562,50.578125  c-24.3955078-31.515625-62.4267578-50.578125-102.4716797-50.578125c-71.3115234,0-129.328125,58.0126953-129.328125,129.3203125  c0,0.190918,0.0009766,0.5083008,0.0097656,0.8510742c0.0625,15.9204102,3.0585938,31.6049805,8.9052734,46.6245117  c13.8154297,41.9404297,53.3740234,90.6972656,117.5810547,144.9155273  c45.4033203,38.3422852,88.7392578,66.8339844,90.5576172,68.0258789c4.3505859,2.8530273,9.4257812,4.3613281,14.6757812,4.3613281  c5.2226562,0,10.2880859-1.5039062,14.6132812-4.3266602c0.4287109-0.2773438,44.1484375-28.8120117,90.6201172-68.0605469  c46.1630859-38.9848633,79.5817871-75.1456299,99.8522949-107.9819336h39.4855957c5.5224609,0,10-4.4770508,10-10  S503.1679688,275.6801758,497.6455078,275.6801758z M345.4033203,388.3823242  c-45.7412109,38.6318359-88.1621094,66.2768555-88.6113281,66.5688477  c-2.2119141,1.4433594-5.2636719,1.4296875-7.4287109,0.0097656c-1.78125-1.1669922-44.1328125-29.0112305-88.6181641-66.5795898  c-61.46875-51.9052734-99.0048828-97.7045898-111.5654297-136.1240234  c-0.0595703-0.1816406-0.1240234-0.3618164-0.1933594-0.5400391c-5.0244141-12.8261719-7.5927734-26.2114258-7.6328125-39.7841797  c0-0.0966797-0.0019531-0.1933594-0.0048828-0.2895508c-0.0048828-0.1479492-0.0039062-0.2915039-0.0039062-0.3725586  c0-60.2792969,49.0439453-109.3203125,109.328125-109.3203125c38.1279297,0,74.1083984,20.4663086,93.9003906,53.4125977  c1.8085938,3.0092773,5.0625,4.8505859,8.5732422,4.8500977s6.7646484-1.8417969,8.5722656-4.8520508  c19.7832031-32.9448242,55.7636719-53.4106445,93.8984375-53.4106445c60.2841797,0,109.3291016,49.0410156,109.3291016,109.3203125  c0,0.3017578-0.0195312,0.5810547-0.0566406,0.8300781c-0.0664062,0.4418945-0.1035156,0.887207-0.1113281,1.3334961  c-0.2099609,13.1108398-2.7753906,25.9858398-7.6240234,38.2675781c-0.0732422,0.1855469-0.140625,0.3735352-0.203125,0.5634766  c-2.4604492,7.5239258-5.8920898,15.3347168-10.2592773,23.4145508h-62.793457l-24.0830078-54.184082  c-1.6074219-3.6166992-5.1923828-5.9384766-9.1367188-5.9384766c-0.0712891,0-0.1425781,0.0004883-0.2148438,0.0024414  c-4.0283203,0.0859375-7.6113281,2.581543-9.0888672,6.3300781l-40.4121094,102.5068359l-16.5175781-132.1455078  c-0.5429688-4.3413086-3.84375-7.8256836-8.1494141-8.6010742c-4.3154297-0.7807617-8.6152344,1.3369141-10.6396484,5.2158203  l-45.2939453,86.8139648h-67.421875c-5.5224609,0-10,4.4770508-10,10s4.4775391,10,10,10h73.4833984  c3.7255859,0,7.1425781-2.0712891,8.8662109-5.3745117l33.2822266-63.7915039l17.4042969,139.234375  c0.5673828,4.5351562,4.1357422,8.1083984,8.6699219,8.6811523c0.421875,0.0532227,0.8417969,0.0791016,1.2578125,0.0791016  c4.0615234,0,7.7783203-2.4765625,9.2978516-6.3330078l46.0283203-116.753418l17.03125,38.3193359  c1.6044922,3.6113281,5.1855469,5.9384766,9.1376953,5.9384766h56.9299316  C414.8798828,323.7998047,385.1540527,354.8123779,345.4033203,388.3823242z"></path></svg>