<svg xmlns="http://www.w3.org/2000/svg" xmlns:xlink="http://www.w3.org/1999/xlink" version="1.1" x="0px" y="0px" viewBox="0 0 100 100" style="enable-background:new 0 0 100 100;" xml:space="preserve"><path d="M10.6191406,29.7573242c0.1181641,0.0483398,1.4462891,0.5712891,3.8232422,0.5712891  c2.4207764,0,5.9306641-0.5444946,10.3570557-2.6809692l-8.8900757,33.2888794h-3.0182495c-0.5522461,0-1,0.4477539-1,1v3.0581055  c0,2.9165039,2.3730469,5.2895508,5.2895508,5.2895508h19.4399414c2.9165039,0,5.2895508-2.3730469,5.2895508-5.2895508v-3.0581055  c0-0.5522461-0.4477539-1-1-1h-4.166687l-9.2717285-34.7197876c0.1352539-0.0791016,0.2675781-0.1522827,0.4042358-0.234314  c8.3085938-4.9847412,15.9387207-5.7077026,19.6384277-5.7113037c-0.3482666,0.5516357-0.5909424,1.2606201-0.6442871,2.1502686  l-3.2454834,54.0058594h-2.8536377c-2.6289062,0-4.7675781,2.1386719-4.7675781,4.7675781v0.8432617h-1.5029297  c-0.5522461,0-1,0.4477539-1,1v5.9560547c0,0.5522461,0.4477539,1,1,1h30.9990234c0.5522461,0,1-0.4477539,1-1v-5.9560547  c0-0.5522461-0.4477539-1-1-1H63.996582v-0.8432617c0-2.6289062-2.1386719-4.7675781-4.7675781-4.7675781h-2.8536377  l-3.2454834-54.0058594c-0.0533447-0.8899536-0.2961426-1.5991211-0.6445923-2.1508789  c3.5888672,0.0030518,10.8774414,0.6885986,18.8948364,5.2803345l-9.2730103,35.3856812h-3.0172729c-0.5522461,0-1,0.4477539-1,1  v3.0581055c0,2.9165039,2.3730469,5.2895508,5.2895508,5.2895508h19.4399414c2.9165039,0,5.2895508-2.3730469,5.2895508-5.2895508  v-3.0581055c0-0.5522461-0.4477539-1-1-1h-4.1647339l-8.8737793-33.8606567  c4.961731,2.6121216,8.8640747,3.2527466,11.4872437,3.2527466c2.3764648-0.0004883,3.7050781-0.5229492,3.8232422-0.5712891  c0.5083008-0.2094727,0.7485352-0.7880859,0.5429688-1.2978516c-0.2055664-0.5087891-0.7856445-0.7578125-1.2983398-0.5541992  c-0.0551758,0.0239258-5.784668,2.175293-15.472168-3.6376953c-8.0789795-4.8469849-15.4440308-5.8769531-19.6484375-5.9989624  c0.8492432-0.8789673,1.3779297-2.0700073,1.3779297-3.3858032C54.8828125,12.1904297,52.6923828,10,50,10  s-4.8828125,2.1904297-4.8828125,4.8828125c0,1.315979,0.5287476,2.5071411,1.3781738,3.3861084  c-4.2046509,0.1221313-11.5703125,1.1519775-19.6486816,5.9986572c-9.6870117,5.8120117-15.4160156,3.6601562-15.4658203,3.6401367  c-0.5097656-0.2089844-1.0947266,0.0327148-1.3056641,0.5439453C9.8652344,28.9624023,10.1083984,29.546875,10.6191406,29.7573242z   M39.9101562,64.9946289c0,1.8139648-1.4755859,3.2895508-3.2895508,3.2895508H17.1806641  c-1.8139648,0-3.2895508-1.4755859-3.2895508-3.2895508v-2.0581055h26.019043V64.9946289z M17.9796753,60.9365234  l8.3469849-31.2553711l8.3464966,31.2553711H17.9796753z M64.4995117,87.9941406H35.5004883v-3.9560547h28.9990234V87.9941406z   M61.996582,81.1948242v0.8432617H38.003418v-0.8432617c0-1.5258789,1.2416992-2.7675781,2.7675781-2.7675781h18.4580078  C60.7548828,78.4272461,61.996582,79.6689453,61.996582,81.1948242z M54.3720703,76.4272461h-8.7441406l3.2382812-53.8857422  C48.9375,21.3579102,49.5039062,20.8188477,50,20.8188477s1.0625,0.5390625,1.1337891,1.7226562L54.3720703,76.4272461z   M86.1088867,64.9946289c0,1.8139648-1.4755859,3.2895508-3.2895508,3.2895508H63.3793945  c-1.8139648,0-3.2895508-1.4755859-3.2895508-3.2895508v-2.0581055h26.019043V64.9946289z M64.1744995,60.9365234  l8.3508911-31.8666992L80.87677,60.9365234H64.1744995z M50,12c1.5893555,0,2.8828125,1.293457,2.8828125,2.8828125  S51.5893555,17.765625,50,17.765625s-2.8828125-1.293457-2.8828125-2.8828125S48.4106445,12,50,12z"></path></svg>