<svg xmlns="http://www.w3.org/2000/svg" xmlns:xlink="http://www.w3.org/1999/xlink" version="1.1" x="0px" y="0px" viewBox="0 0 100 100" style="enable-background:new 0 0 100 100;" xml:space="preserve"><g><path d="M30.9,13.2c2.6-0.5,4.5-2.7,4.5-5.4c0-3.1-2.5-5.6-5.6-5.6c-3.1,0-5.6,2.5-5.6,5.6c0,2.7,1.9,5,4.5,5.4v12l10.1,8.5v32.9   l-10.1,8.5v12c-2.6,0.5-4.5,2.7-4.5,5.4c0,3.1,2.5,5.6,5.6,5.6c3.1,0,5.6-2.5,5.6-5.6c0-2.7-1.9-5-4.5-5.4v-11L41,67.4V32.6   l-10.1-8.5V13.2z M33.3,92.3c0,1.9-1.5,3.5-3.5,3.5c-1.9,0-3.5-1.5-3.5-3.5s1.5-3.5,3.5-3.5C31.8,88.8,33.3,90.4,33.3,92.3z    M26.4,7.7c0-1.9,1.5-3.5,3.5-3.5c1.9,0,3.5,1.5,3.5,3.5s-1.5,3.5-3.5,3.5C28,11.2,26.4,9.6,26.4,7.7z"></path><path d="M71.2,86.8v-12l-10.1-8.5V33.6l10.1-8.5v-12c2.6-0.5,4.5-2.7,4.5-5.4c0-3.1-2.5-5.6-5.6-5.6s-5.6,2.5-5.6,5.6   c0,2.7,1.9,5,4.5,5.4v11L59,32.6v34.8l10.1,8.5v11c-2.6,0.5-4.5,2.7-4.5,5.4c0,3.1,2.5,5.6,5.6,5.6s5.6-2.5,5.6-5.6   C75.7,89.6,73.7,87.3,71.2,86.8z M66.7,7.7c0-1.9,1.5-3.5,3.5-3.5s3.5,1.5,3.5,3.5s-1.5,3.5-3.5,3.5S66.7,9.6,66.7,7.7z M70.1,95.7   c-1.9,0-3.5-1.5-3.5-3.5s1.5-3.5,3.5-3.5s3.5,1.5,3.5,3.5S72,95.7,70.1,95.7z"></path><path d="M80.2,61.4c-1.2,0-2.4,0.4-3.3,1.1l-5.7-4.5V42.1l5.7-4.5c0.9,0.7,2.1,1.1,3.3,1.1c3.1,0,5.6-2.5,5.6-5.6   c0-3.1-2.5-5.6-5.6-5.6s-5.6,2.5-5.6,5.6c0,1.1,0.3,2,0.8,2.9L69.1,41V59l6.4,5.1c-0.5,0.8-0.8,1.8-0.8,2.9c0,3.1,2.5,5.6,5.6,5.6   s5.6-2.5,5.6-5.6C85.8,63.9,83.3,61.4,80.2,61.4z M76.8,33.1c0-1.9,1.5-3.5,3.5-3.5s3.5,1.5,3.5,3.5c0,1.9-1.5,3.5-3.5,3.5   c-0.7,0-1.3-0.2-1.8-0.5l-1.1-1.4l-0.1,0.1C76.9,34.2,76.8,33.7,76.8,33.1z M80.2,70.4c-1.9,0-3.5-1.5-3.5-3.5   c0-0.6,0.1-1.1,0.4-1.6l0.1,0.1l1.1-1.4c0.5-0.3,1.2-0.5,1.8-0.5c1.9,0,3.5,1.5,3.5,3.5C83.7,68.8,82.1,70.4,80.2,70.4z"></path><path d="M24.4,63.9l6.5-4.9V41l-6.5-4.9c0.6-0.9,0.9-1.9,0.9-3c0-3.1-2.5-5.6-5.6-5.6s-5.6,2.5-5.6,5.6c0,3.1,2.5,5.6,5.6,5.6   c1.2,0,2.3-0.4,3.2-1l5.9,4.4v15.9L23,62.4c-0.9-0.6-2-1-3.2-1c-3.1,0-5.6,2.5-5.6,5.6c0,3.1,2.5,5.6,5.6,5.6s5.6-2.5,5.6-5.6   C25.3,65.8,25,64.8,24.4,63.9z M19.8,36.5c-1.9,0-3.5-1.5-3.5-3.5c0-1.9,1.5-3.5,3.5-3.5s3.5,1.5,3.5,3.5   C23.2,35,21.7,36.5,19.8,36.5z M19.8,70.4c-1.9,0-3.5-1.5-3.5-3.5c0-1.9,1.5-3.5,3.5-3.5s3.5,1.5,3.5,3.5   C23.2,68.8,21.7,70.4,19.8,70.4z"></path><path d="M55.6,24.6c0-3.1-2.5-5.6-5.6-5.6s-5.6,2.5-5.6,5.6c0,2.7,1.9,5,4.5,5.4v39.9c-2.6,0.5-4.5,2.7-4.5,5.4   c0,3.1,2.5,5.6,5.6,5.6s5.6-2.5,5.6-5.6c0-2.7-1.9-5-4.5-5.4V30.1C53.6,29.6,55.6,27.3,55.6,24.6z M46.5,24.6   c0-1.9,1.5-3.5,3.5-3.5c1.9,0,3.5,1.5,3.5,3.5c0,1.9-1.5,3.5-3.5,3.5C48.1,28.1,46.5,26.5,46.5,24.6z M53.5,75.4   c0,1.9-1.5,3.5-3.5,3.5c-1.9,0-3.5-1.5-3.5-3.5s1.5-3.5,3.5-3.5C51.9,71.9,53.5,73.5,53.5,75.4z"></path></g></svg>