<svg xmlns="http://www.w3.org/2000/svg" xmlns:xlink="http://www.w3.org/1999/xlink" version="1.1" x="0px" y="0px" viewBox="0 0 100 100" enable-background="new 0 0 100 100" xml:space="preserve"><path d="M82.687,54.932l10.308-7.85L74.876,23.304l-10.305,7.851l0.364,0.477H44.668c-1.336,0-4.583,0.291-6.395,2.783l-3.215-1.477  l1.358-1.784l-10.305-7.851L7.994,47.082l10.308,7.85l1.976-2.592l2.345,1.791l-0.307,0.422c-0.813,1.104-1.148,2.457-0.942,3.809  c0.2,1.317,0.894,2.469,1.949,3.245c0.848,0.626,1.86,0.956,2.923,0.956c0.338,0,0.67-0.054,0.998-0.12  c-0.408,1.885,0.259,3.903,1.883,5.101c0.848,0.623,1.856,0.954,2.919,0.954c0.484,0,0.954-0.091,1.411-0.225  c-0.046,0.42-0.058,0.845,0.003,1.271c0.19,1.34,0.885,2.514,1.96,3.305c0.849,0.623,1.856,0.952,2.919,0.952  c1.213,0,2.381-0.44,3.296-1.214c0.228,1.187,0.862,2.289,1.898,3.052c0.852,0.627,1.863,0.958,2.926,0.958  c1.02,0,1.987-0.338,2.818-0.896l0.878,0.631c0.882,0.638,1.916,0.97,2.98,0.97c0.275,0,0.554-0.022,0.831-0.067  c1.316-0.216,2.466-0.924,3.232-1.994c0.685-0.948,0.955-2.062,0.891-3.158l0.118,0.087c0.909,0.649,1.958,0.962,2.992,0.962  c1.561,0,3.09-0.715,4.055-2.062c0.767-1.08,1.024-2.367,0.847-3.596c0.589,0.224,1.2,0.349,1.812,0.349  c1.561,0,3.092-0.714,4.059-2.062c0.8-1.121,1.061-2.472,0.838-3.744c0.465,0.132,0.94,0.207,1.414,0.207  c1.561,0,3.088-0.716,4.054-2.061c0.778-1.085,1.078-2.416,0.845-3.749c-0.184-1.038-0.678-1.968-1.409-2.703l2.561-1.945  L82.687,54.932z M74.538,25.804l15.955,20.94l-7.469,5.69L67.072,31.493L74.538,25.804z M17.964,52.435l-7.469-5.69l15.955-20.94  l7.466,5.689L17.964,52.435z M24.379,60.172c-0.672-0.495-1.114-1.233-1.243-2.078c-0.134-0.882,0.085-1.763,0.62-2.489l1.632-2.254  c0.629-0.854,1.631-1.362,2.681-1.362c0.68,0,1.324,0.211,1.865,0.606c0.673,0.494,1.115,1.234,1.244,2.081  c0.132,0.88-0.086,1.761-0.62,2.487l-0.14,0.193l-1.634,2.218C27.708,60.837,25.703,61.146,24.379,60.172z M30.183,66.107  c-1.425-1.05-1.707-3.099-0.632-4.565l0.685-0.93c0.04-0.051,0.094-0.089,0.132-0.142l1.535-2.123l2.306-3.134  c0.627-0.85,1.627-1.358,2.676-1.358c0.679,0,1.323,0.209,1.865,0.608c1.423,1.047,1.709,3.088,0.642,4.555l-1.185,1.609  l-3.48,4.724C33.689,66.756,31.554,67.116,30.183,66.107z M36.477,71.409c-0.685-0.501-1.129-1.254-1.253-2.116  c-0.122-0.869,0.098-1.736,0.618-2.443l4.065-5.527l0.915-1.241c0.001-0.002,0.001-0.004,0.005-0.007l2.156-2.932  c0.627-0.851,1.627-1.357,2.679-1.357c0.68,0,1.326,0.209,1.864,0.606c0.685,0.504,1.128,1.254,1.25,2.114  c0.122,0.869-0.098,1.737-0.618,2.446l-2.501,3.397c-0.04,0.051-0.091,0.089-0.129,0.142l-3.003,4.097  c-0.022,0.029-0.035,0.064-0.056,0.094l-1.453,1.976C39.984,72.061,37.847,72.422,36.477,71.409z M44.59,74.203  c-1.397-1.027-1.685-3.015-0.676-4.477l3.166-4.304c0.631-0.77,1.571-1.236,2.564-1.236c0.677,0,1.32,0.209,1.858,0.604  c1.428,1.054,1.714,3.1,0.634,4.566l-3.003,4.096C48.104,74.856,45.973,75.221,44.59,74.203z M55.751,74.198  c-0.491,0.685-1.229,1.138-2.073,1.276c-0.886,0.136-1.755-0.065-2.481-0.589l-0.589-0.425l2.966-4.048  c0.262-0.355,0.453-0.738,0.611-1.13l1.375,0.985C56.486,71.393,56.613,73.002,55.751,74.198z M76.827,59.121  c-1.028,1.437-3.073,1.751-4.556,0.687l-5.822-4.152l-2.089-1.496l-0.003,0.005l-2.498-1.782l-1.034,1.453l4.762,3.396l4.119,2.954  c1.478,1.059,1.841,3.097,0.813,4.535c-1.033,1.439-3.076,1.745-4.557,0.688l-4.768-3.392l0,0l-4.072-2.925l-1.041,1.449  l6.904,4.959c1.476,1.056,1.84,3.09,0.815,4.532c-1.029,1.438-3.073,1.745-4.557,0.685l-2.451-1.757  c-0.243-0.271-0.514-0.522-0.82-0.746l-1.425-1.019c-0.054-1.476-0.723-2.909-1.989-3.845c-0.961-0.703-2.154-0.961-3.323-0.858  l0.357-0.486c0.8-1.085,1.138-2.417,0.949-3.748c-0.189-1.341-0.885-2.514-1.96-3.304c-2.088-1.535-5.273-1.046-6.906,0.989  c-0.252-1.134-0.872-2.185-1.87-2.918c-2.106-1.548-5.334-1.043-6.952,1.042c-0.261-1.173-0.901-2.202-1.865-2.911  c-2.144-1.57-5.441-1.032-7.042,1.142l-0.278,0.387l-2.312-1.763l12.593-16.53l3.251,1.494l-1.836,2.561  c-0.813,1.103-1.148,2.454-0.941,3.808c0.202,1.317,0.894,2.47,1.946,3.24c1.054,0.778,2.36,1.099,3.679,0.9  c1.354-0.204,2.546-0.922,3.363-2.029l2.724-3.763l4.545-0.016c0.614,3.573,4.015,6.745,7.451,6.745h7.708l10.179,7.252  c0.716,0.515,1.193,1.272,1.345,2.134C77.513,57.576,77.323,58.43,76.827,59.121z M76.263,52.57l-9.852-7.021h-8.279  c-2.78,0-5.633-2.919-5.76-5.893L52.333,38.8l-7.109,0.024l-3.252,4.49c-0.529,0.718-1.307,1.185-2.188,1.316  c-0.849,0.131-1.682-0.073-2.357-0.573c-0.67-0.491-1.109-1.228-1.24-2.07c-0.134-0.882,0.084-1.763,0.62-2.491l2.803-3.912  c1.358-2.012,4.216-2.168,5.059-2.168h21.626l12.898,16.928L76.263,52.57z"></path></svg>