<svg xmlns="http://www.w3.org/2000/svg" data-name="Layer 1" viewBox="0 0 100 100" x="0px" y="0px"><defs><style>.cls-1{fill:none;stroke:#000;stroke-linecap:round;stroke-linejoin:round;}</style></defs><title>Artboard 11</title><rect class="cls-1" x="28" y="44.5" width="2.5" height="2.5"></rect><rect class="cls-1" x="33" y="44.5" width="2.5" height="2.5"></rect><rect class="cls-1" x="28" y="50.5" width="2.5" height="2.5"></rect><rect class="cls-1" x="33" y="50.5" width="2.5" height="2.5"></rect><rect class="cls-1" x="38" y="50.5" width="2.5" height="2.5"></rect><rect class="cls-1" x="43" y="50.5" width="2.5" height="2.5"></rect><rect class="cls-1" x="28" y="56.5" width="2.5" height="2.5"></rect><rect class="cls-1" x="33" y="56.5" width="2.5" height="2.5"></rect><rect class="cls-1" x="38" y="56.5" width="2.5" height="2.5"></rect><rect class="cls-1" x="43" y="56.5" width="2.5" height="2.5"></rect><rect class="cls-1" x="28" y="62.5" width="2.5" height="2.5"></rect><rect class="cls-1" x="33" y="62.5" width="2.5" height="2.5"></rect><rect class="cls-1" x="38" y="62.5" width="2.5" height="2.5"></rect><rect class="cls-1" x="43" y="62.5" width="2.5" height="2.5"></rect><line class="cls-1" x1="19.5" y1="78.5" x2="78.5" y2="78.5"></line><polygon class="cls-1" points="41.5 44.5 39.5 44.5 39.5 40.5 23.5 40.5 23.5 78.5 49.5 78.5 49.5 48.5 41.5 48.5 41.5 44.5"></polygon><polyline class="cls-1" points="39.5 40.5 39.5 44.5 41.5 44.5"></polyline><polyline class="cls-1" points="44.5 44.5 41.5 44.5 41.5 48.5 49.5 48.5"></polyline><line class="cls-1" x1="41.5" y1="44.5" x2="44.5" y2="44.5"></line><rect class="cls-1" x="38" y="44.5" width="2.5" height="2.5"></rect><polygon class="cls-1" points="79.5 28.5 43.5 28.5 45.5 26.5 78.5 26.5 79.5 28.5"></polygon><rect class="cls-1" x="64.5" y="28.5" width="5" height="2"></rect><polyline class="cls-1" points="69.5 36.5 72.5 36.5 72.5 30.5 69.5 30.5"></polyline><polyline class="cls-1" points="64.5 30.5 60.75 30.5 58.5 34.36 58.5 36.5 64.5 36.5"></polyline><line class="cls-1" x1="45.5" y1="28.5" x2="45.5" y2="36.5"></line><line class="cls-1" x1="76.5" y1="28.5" x2="76.5" y2="62.5"></line><rect class="cls-1" x="72.5" y="62.5" width="8" height="10"></rect><rect class="cls-1" x="41.5" y="39.5" width="8" height="5"></rect><polyline class="cls-1" points="42.5 39.5 45.5 36.5 48.5 39.5"></polyline><polygon class="cls-1" points="67 21.5 64.5 26.5 69.5 26.5 67 21.5"></polygon><line class="cls-1" x1="66.5" y1="22.5" x2="46.5" y2="26.5"></line><line class="cls-1" x1="67.5" y1="22.5" x2="76.5" y2="26.5"></line><polyline class="cls-1" points="64.5 36.5 69.5 41.5 64.5 46.5"></polyline><polyline class="cls-1" points="64.5 46.5 69.5 51.5 64.5 56.5"></polyline><polyline class="cls-1" points="64.5 56.5 69.5 61.5 64.5 66.5"></polyline><polyline class="cls-1" points="64.5 66.5 69.5 71.5 64.5 76.5"></polyline><rect class="cls-1" x="64.5" y="36.5" width="5" height="40"></rect><polyline class="cls-1" points="64.5 76.5 60.5 76.5 60.5 78.5 73.5 78.5 73.5 76.5 69.5 76.5"></polyline></svg>