<svg xmlns="http://www.w3.org/2000/svg" xmlns:xlink="http://www.w3.org/1999/xlink" version="1.1" x="0px" y="0px" viewBox="0 0 100 100" style="enable-background:new 0 0 100 100;" xml:space="preserve"><path d="M50,19.375c0.5522461,0,1-0.4477539,1-1V11c0-0.5522461-0.4477539-1-1-1s-1,0.4477539-1,1v7.375  C49,18.9272461,49.4477539,19.375,50,19.375z"></path><path d="M36.9736328,21.1650391c0.159668,0.3847656,0.5317383,0.6176758,0.9243164,0.6176758  c0.1274414,0,0.2568359-0.0249023,0.3823242-0.0766602c0.5102539-0.2114258,0.7524414-0.7963867,0.5410156-1.3066406  l-2.8222656-6.8134766c-0.2119141-0.5102539-0.7949219-0.7524414-1.3066406-0.5410156  c-0.5102539,0.2114258-0.7524414,0.7963867-0.5410156,1.3066406L36.9736328,21.1650391z"></path><path d="M26.9306641,28.3447266c0.1953125,0.1953125,0.4511719,0.2929688,0.7070312,0.2929688  s0.5117188-0.0976562,0.7070312-0.2929688c0.390625-0.390625,0.390625-1.0234375,0-1.4140625l-5.2148438-5.2148438  c-0.390625-0.390625-1.0234375-0.390625-1.4140625,0s-0.390625,1.0234375,0,1.4140625L26.9306641,28.3447266z"></path><path d="M13.5859375,35.9990234l6.8134766,2.8222656c0.1254883,0.0517578,0.2548828,0.0766602,0.3823242,0.0766602  c0.3925781,0,0.7646484-0.2329102,0.9243164-0.6176758c0.2114258-0.5102539-0.0307617-1.0952148-0.5410156-1.3066406  l-6.8134766-2.8222656c-0.512207-0.2124023-1.0952148,0.03125-1.3066406,0.5410156  C12.8334961,35.2026367,13.0756836,35.7875977,13.5859375,35.9990234z"></path><path d="M78.2939453,38.2802734c0.159668,0.3847656,0.5317383,0.6176758,0.9243164,0.6176758  c0.1274414,0,0.2568359-0.0249023,0.3823242-0.0766602l6.8134766-2.8222656  c0.5102539-0.2114258,0.7524414-0.7963867,0.5410156-1.3066406c-0.2114258-0.5097656-0.7949219-0.753418-1.3066406-0.5410156  l-6.8134766,2.8222656C78.324707,37.1850586,78.0825195,37.7700195,78.2939453,38.2802734z"></path><path d="M72.3623047,28.6376953c0.2558594,0,0.5117188-0.0976562,0.7070312-0.2929688l5.2148438-5.2148438  c0.390625-0.390625,0.390625-1.0234375,0-1.4140625s-1.0234375-0.390625-1.4140625,0l-5.2148438,5.2148438  c-0.390625,0.390625-0.390625,1.0234375,0,1.4140625C71.8505859,28.5400391,72.1064453,28.6376953,72.3623047,28.6376953z"></path><path d="M61.7197266,21.7060547c0.1254883,0.0517578,0.2548828,0.0766602,0.3823242,0.0766602  c0.3925781,0,0.7646484-0.2329102,0.9243164-0.6176758l2.8222656-6.8134766  c0.2114258-0.5102539-0.0307617-1.0952148-0.5410156-1.3066406c-0.512207-0.2114258-1.0952148,0.0307617-1.3066406,0.5410156  l-2.8222656,6.8134766C60.9672852,20.909668,61.2094727,21.4946289,61.7197266,21.7060547z"></path><path d="M10.8505859,48.6953125c9.1513672,1.3842773,40.9794922,8.4267578,66.3139648,40.9194336  C77.3618164,89.8676758,77.65625,90,77.9536133,90c0.215332,0,0.4316406-0.0688477,0.6142578-0.2114258  c0.4355469-0.3393555,0.5136719-0.9677734,0.1738281-1.4033203c-2.1546021-2.7634277-4.3585815-5.3304443-6.5890503-7.7440796  c5.5007935-3.3253784,11.2818604-6.15802,17.2033081-8.4146118c0.5161133-0.1967773,0.7753906-0.7744141,0.5786133-1.2905273  c-0.1972656-0.5166016-0.7763672-0.7744141-1.2905273-0.5786133c-6.1641846,2.348877-12.1792603,5.3085938-17.8908081,8.7910767  c-2.663147-2.7838745-5.3609619-5.3297119-8.0671997-7.663147c10.5195923-6.3861084,20.2200317-9.7979736,26.578125-11.5380859  c0.5327148-0.1455078,0.8461914-0.6958008,0.7001953-1.2285156s-0.6962891-0.847168-1.2285156-0.7001953  c-6.5953979,1.8048706-16.7164917,5.3696289-27.6507568,12.0979614c-3.0999146-2.5749512-6.1994629-4.8623047-9.2589111-6.9124756  C68.4384766,52.7224731,83.4041138,49.56427,89.1494141,48.6953125c0.5463867-0.0825195,0.921875-0.5922852,0.8393555-1.1381836  c-0.0825195-0.5463867-0.5981445-0.9238281-1.1381836-0.8393555c-2.8372803,0.4291382-7.8741455,1.4005737-14.230957,3.4937134  C74.6202393,50.140686,74.625,50.0709229,74.625,50c0-13.578125-11.046875-24.625-24.625-24.625S25.375,36.421875,25.375,50  c0,0.0739136,0.0053101,0.1464233,0.0059814,0.2202148c-6.3395386-2.0913086-11.3730469-3.0699463-14.2315674-3.5024414  c-0.5395508-0.0830078-1.0551758,0.2929688-1.1381836,0.8393555C9.9287109,48.1030273,10.3041992,48.612793,10.8505859,48.6953125z   M27.375,50c0-12.4755859,10.1494141-22.625,22.625-22.625S72.625,37.5244141,72.625,50  c0,0.3017578-0.0109863,0.6008911-0.022644,0.8999634c-6.605835,2.3265991-14.4345703,5.8320312-22.6217041,11.093811  c-8.1801147-5.2497559-15.9888306-8.7580566-22.5809326-11.0842896C27.3878174,50.6072388,27.375,50.3052979,27.375,50z"></path><path d="M10.7358398,59.9472656c12.8046875,3.5048828,31.7358398,11.5102539,49.2080078,29.7441406  c0.1967773,0.2050781,0.4589844,0.3081055,0.722168,0.3081055c0.2490234,0,0.4980469-0.0922852,0.6918945-0.277832  c0.3989258-0.3823242,0.4121094-1.0151367,0.0302734-1.4140625C43.5996094,69.7436523,24.3120117,61.5898438,11.2641602,58.0185547  c-0.5327148-0.1469727-1.0830078,0.1674805-1.2285156,0.7001953C9.8896484,59.2514648,10.203125,59.8017578,10.7358398,59.9472656z"></path><path d="M10.644043,72.2265625c10.8359375,4.1293945,20.9677734,10.0327148,30.112793,17.5454102  c0.1860352,0.1533203,0.4106445,0.2275391,0.6342773,0.2275391c0.2885742,0,0.5756836-0.1245117,0.7729492-0.3652344  c0.3505859-0.4267578,0.2890625-1.0566406-0.1376953-1.4072266c-9.3125-7.6508789-19.6313477-13.6625977-30.6704102-17.8696289  c-0.5151367-0.1962891-1.09375,0.0620117-1.2905273,0.5786133C9.8686523,71.4521484,10.1279297,72.0297852,10.644043,72.2265625z"></path></svg>