<svg xmlns="http://www.w3.org/2000/svg" viewBox="0 0 64 64" x="0px" y="0px"><g data-name="Tools"><path d="M48.313,31.757l2.072,2.071a1,1,0,0,0,1.414,0l9.9-9.9a1,1,0,0,0,0-1.414l-2.071-2.071a2.985,2.985,0,0,0-2.71-.821l-1.961.392L53.92,18.979l2.122-2.121a1,1,0,0,0,0-1.414L49.7,9.1a10.966,10.966,0,0,0-5.621-3.009L29.368,3.149a1,1,0,0,0-.9.274L27.05,4.837a1,1,0,0,0,.26,1.6l9.178,4.59a3,3,0,0,1,.781,4.805l-2.441,2.439a1,1,0,0,0,0,1.414l.706.706L30.5,25.426l-7.367-7.367a2.973,2.973,0,0,1-.84-2.5A9.991,9.991,0,0,0,8.057,5.349a1,1,0,0,0-.274,1.608L13,12.174V15H10.174L4.957,9.783a1,1,0,0,0-1.608.274A9.991,9.991,0,0,0,13.561,24.292a2.971,2.971,0,0,1,2.5.845L23.426,32.5,4.783,51.143a5,5,0,0,0,7.074,7.074L30.5,39.574l8.367,8.367a2.976,2.976,0,0,1,.84,2.5A9.991,9.991,0,0,0,53.943,60.651a1,1,0,0,0,.274-1.608L49,53.826V51h2.826l5.217,5.217a1,1,0,0,0,1.608-.274A9.991,9.991,0,0,0,48.438,41.708a2.969,2.969,0,0,1-2.5-.845L37.574,32.5l5.034-5.034.705.7a1,1,0,0,0,1.415,0L46.85,26.05l1.035,1.036-.392,1.96A3,3,0,0,0,48.313,31.757ZM13.957,22.268a5.208,5.208,0,0,0-.633.039A7.994,7.994,0,0,1,4.641,12.3l4.412,4.411A1,1,0,0,0,9.76,17H14a1,1,0,0,0,1-1V11.76a1,1,0,0,0-.293-.707L10.3,6.641a7.994,7.994,0,0,1,10.011,8.678,4.953,4.953,0,0,0,1.416,4.158l7.363,7.363L24.84,31.086l-7.359-7.359A4.924,4.924,0,0,0,13.957,22.268ZM48.676,43.693a7.993,7.993,0,0,1,8.682,10.012l-4.411-4.412A1,1,0,0,0,52.24,49H48a1,1,0,0,0-1,1v4.24a1,1,0,0,0,.293.707L51.7,59.359a7.993,7.993,0,0,1-10.011-8.678,4.959,4.959,0,0,0-1.416-4.158L31.914,38.16l4.246-4.246,8.359,8.358A4.956,4.956,0,0,0,48.676,43.693ZM10.443,56.8A3,3,0,0,1,6.2,52.557L36.948,21.806l4.246,4.246ZM47.557,23.929a1,1,0,0,0-1.414,0l-2.12,2.119-7.072-7.071,1.732-1.73a5,5,0,0,0-1.3-8.008L29.445,5.27l.055-.055L43.684,8.052a8.979,8.979,0,0,1,4.6,2.462l5.638,5.637L51.8,18.272a1,1,0,0,0,0,1.414l2.121,2.122a1,1,0,0,0,.9.273l2.487-.5a1,1,0,0,1,.9.273l1.364,1.365-8.485,8.485-1.364-1.364a1,1,0,0,1-.274-.9l.5-2.485a1,1,0,0,0-.273-.9Z"></path></g></svg>